<mxfile host="Electron" modified="2023-08-04T18:49:40.242Z" agent="Mozilla/5.0 (Macintosh; Intel Mac OS X 10_15_7) AppleWebKit/537.36 (KHTML, like Gecko) draw.io/21.5.1 Chrome/112.0.5615.204 Electron/24.6.0 Safari/537.36" etag="ViWIwySK5jWGAMqaJcY0" version="21.5.1" type="device">
  <diagram id="2FZCEFIGFviBtUF47QQc" name="Page-1">
    <mxGraphModel dx="1819" dy="1054" grid="1" gridSize="10" guides="1" tooltips="1" connect="1" arrows="1" fold="1" page="1" pageScale="1" pageWidth="850" pageHeight="1100" math="0" shadow="0">
      <root>
        <mxCell id="0" />
        <mxCell id="1" parent="0" />
        <mxCell id="kZlyT9btExikWkIdY84d-9" value="" style="rounded=0;whiteSpace=wrap;html=1;dashed=1;glass=1;shadow=1;strokeWidth=2;fillColor=none;" parent="1" vertex="1">
          <mxGeometry x="20" y="20" width="440" height="430" as="geometry" />
        </mxCell>
        <mxCell id="kZlyT9btExikWkIdY84d-12" value="" style="group" parent="1" vertex="1" connectable="0">
          <mxGeometry x="21.5" y="20" width="440" height="400" as="geometry" />
        </mxCell>
        <mxCell id="kZlyT9btExikWkIdY84d-10" value="Browser" style="text;html=1;strokeColor=none;fillColor=none;align=center;verticalAlign=middle;whiteSpace=wrap;rounded=0;shadow=1;glass=1;dashed=1;fontSize=14;" parent="kZlyT9btExikWkIdY84d-12" vertex="1">
          <mxGeometry x="23.5" y="6" width="40" height="20" as="geometry" />
        </mxCell>
        <mxCell id="-r5Mu0k7ATpPsQTbyTsy-12" value="" style="edgeStyle=orthogonalEdgeStyle;rounded=0;orthogonalLoop=1;jettySize=auto;html=1;exitX=0.999;exitY=0.903;exitDx=0;exitDy=0;entryX=0;entryY=0.5;entryDx=0;entryDy=0;exitPerimeter=0;" parent="1" source="8snywRcjMDDPEAN6RYJw-1" target="4vIXEkXpFMLQv__zkvIG-5" edge="1">
          <mxGeometry relative="1" as="geometry">
            <mxPoint x="428.5" y="329.25" as="sourcePoint" />
            <mxPoint x="634" y="370" as="targetPoint" />
          </mxGeometry>
        </mxCell>
        <mxCell id="8snywRcjMDDPEAN6RYJw-1" value="" style="shape=image;verticalLabelPosition=bottom;labelBackgroundColor=default;verticalAlign=top;aspect=fixed;imageAspect=0;image=data:image/png,iVBORw0KGgoAAAANSUhEUgAAAxsAAALNCAYAAABHznxPAAAKqGlDQ1BJQ0MgUHJvZmlsZQAASImVlgdQU+kWx79700NCC4QiJfQmSCeAlNBDkV5FJSQBQgkhEJrYWVyBFUVEBJQVXRRQcFWKrAURxbYoCnZdkEVAXRcLoqLyLjCE3X3z3pt3Zk6+35yc73zn3LnfnT8AZBJLIEiGpQFI4WcIgzxdaBGRUTTcKIAAGRABCeiw2OkCRkCAL0BsYf27fbiLZCN2x3i21r///19NhsNNZwMABSAcy0lnpyB8CvHnbIEwAwBUNRLXysoQzHInwnJCpEGE+2c5fp7HZjl2nr/M5YQEuQKARqbCk1gsYTwAJBUkTstkxyN1SMsRNuVzeHyEZ/t1TElJ5SB8FGF9JEeA8Gx9euxf6sT/rWasuCaLFS/m+VnmDO/GSxcks3L+z8fxvy0lWbRwhi7ipAShVxCySiLP7H5Sqo+Y+bEr/BeYx5nLn+MEkVfoArPTXaMWmMNy8xHvTV7hu8BxPA+muE4GM2SBuenuwQssTA0SnxUndGUsMEu4eK4oKVQcT+AyxfVzE0LCFziTF7ZigdOTgn0Wc1zFcaEoSNw/l+/psniuh3j2lPS/zMtjivdmJIR4iWdnLfbP5TMWa6ZHiHvjcN3cF3NCxfmCDBfxWYLkAHE+N9lTHE/PDBbvzUBeyMW9AeJnmMjyDlhgEArMAR24I24FTAHI4GZnzA7hmirIEfLiEzJoDOR2cWlMPttkKc3c1NwCgNm7Ov8qvKPO3UGIem0xlvQMAFt7AOB3i7EYZM6WaADIRosxwxrkGvIAuCjFFgkz52Po2R8M8gWQAnJACagBLaAPjJEOrYE9cEa69Ab+IAREgtWADRJAChCCLJAHNoECUAR2gN2gEtSAg+AIOAZOgDZwBlwAl8F1cAsMgEdgEIyAl2ACfADTEAThIDJEgZQgdUgHMoLMITrkCLlDvlAQFAnFQPEQHxJBedAWqAgqhSqhA1A99DN0GroAXYX6oAfQEDQOvYU+wyiYBMvBqrAuvAymwwzYBw6BV8HxcBqcC+fD2+EKuBY+CrfCF+Dr8AA8CL+EJ1EAJYGiojRQxig6yhXlj4pCxaGEqPWoQlQ5qhbVhOpA9aDuoAZRr1Cf0Fg0BU1DG6Pt0V7oUDQbnYZejy5GV6KPoFvR3eg76CH0BPobhoxRwRhh7DBMTAQmHpOFKcCUY+owLZhLmAHMCOYDFoulYvWwNlgvbCQ2EbsWW4zdh23GdmL7sMPYSRwOp4Qzwjng/HEsXAauALcXdxR3HncbN4L7iJfAq+PN8R74KDwfvxlfjm/An8Pfxo/ipwnSBB2CHcGfwCHkEEoIhwgdhJuEEcI0UYaoR3QghhATiZuIFcQm4iXiY+I7CQkJTQlbiUAJnsRGiQqJ4xJXJIYkPpFkSYYkV1I0SUTaTjpM6iQ9IL0jk8m6ZGdyFDmDvJ1cT75Ifkr+KEmRNJFkSnIkN0hWSbZK3pZ8LUWQ0pFiSK2WypUqlzopdVPqlTRBWlfaVZolvV66Svq09D3pSRmKjJmMv0yKTLFMg8xVmTFZnKyurLssRzZf9qDsRdlhCoqiRXGlsClbKIcolygjclg5PTmmXKJckdwxuV65CXlZeUv5MPls+Sr5s/KDVBRVl8qkJlNLqCeod6mfFVQVGApchW0KTQq3FaYUlyg6K3IVCxWbFQcUPyvRlNyVkpR2KrUpPVFGKxsqBypnKe9XvqT8aoncEvsl7CWFS04seagCqxiqBKmsVTmockNlUlVN1VNVoLpX9aLqKzWqmrNaolqZ2jm1cXWKuqM6T71M/bz6C5o8jUFLplXQumkTGioaXhoijQMavRrTmnqaoZqbNZs1n2gRtehacVplWl1aE9rq2n7aedqN2g91CDp0nQSdPTo9OlO6errhult123TH9BT1mHq5eo16j/XJ+k76afq1+v0GWAO6QZLBPoNbhrChlWGCYZXhTSPYyNqIZ7TPqG8pZqntUv7S2qX3jEnGDONM40bjIROqia/JZpM2k9fLtJdFLdu5rGfZN1Mr02TTQ6aPzGTNvM02m3WYvTU3NGebV5n3W5AtPCw2WLRbvLE0suRa7re8b0Wx8rPaatVl9dXaxlpo3WQ9bqNtE2NTbXOPLkcPoBfTr9hibF1sN9iesf1kZ22XYXfC7k97Y/sk+wb7seV6y7nLDy0fdtB0YDkccBh0pDnGOP7oOOik4cRyqnV65qzlzHGucx5lGDASGUcZr11MXYQuLS5Trnau61w73VBunm6Fbr3usu6h7pXuTz00PeI9Gj0mPK0813p2emG8fLx2et1jqjLZzHrmhLeN9zrvbh+ST7BPpc8zX0NfoW+HH+zn7bfL7/EKnRX8FW3+wJ/pv8v/SYBeQFrAL4HYwIDAqsDnQWZBeUE9wZTgNcENwR9CXEJKQh6F6oeKQrvCpMKiw+rDpsLdwkvDByOWRayLuB6pHMmLbI/CRYVF1UVNrnRfuXvlSLRVdEH03VV6q7JXXV2tvDp59dk1UmtYa07GYGLCYxpivrD8WbWsyVhmbHXsBNuVvYf9kuPMKeOMcx24pdzROIe40rixeIf4XfHjCU4J5QmveK68St6bRK/EmsSpJP+kw0kzyeHJzSn4lJiU03xZfhK/O1UtNTu1T2AkKBAMptml7U6bEPoI69Kh9FXp7RlyiCi6IdIXfScaynTMrMr8mBWWdTJbJpuffSPHMGdbzmiuR+5Pa9Fr2Wu78jTyNuUNrWOsO7AeWh+7vmuD1ob8DSMbPTce2UTclLTp182mm0s3v98SvqUjXzV/Y/7wd57fNRZIFggL7m2131rzPfp73ve92yy27d32rZBTeK3ItKi86Esxu/jaD2Y/VPwwsz1ue2+Jdcn+Hdgd/B13dzrtPFIqU5pbOrzLb1drGa2ssOz97jW7r5ZbltfsIe4R7Rms8K1o36u9d8feL5UJlQNVLlXN1SrV26qn9nH23d7vvL+pRrWmqObzj7wf7x/wPNBaq1tbfhB7MPPg80Nhh3p+ov9UX6dcV1T39TD/8OCRoCPd9Tb19Q0qDSWNcKOocfxo9NFbx9yOtTcZNx1opjYXHQfHRcdf/Bzz890TPie6TtJPNp3SOVXdQmkpbIVac1on2hLaBtsj2/tOe5/u6rDvaPnF5JfDZzTOVJ2VP1tyjngu/9zM+dzzk52CzlcX4i8Md63penQx4mJ/d2B37yWfS1cue1y+2MPoOX/F4cqZq3ZXT1+jX2u7bn299YbVjZZfrX5t6bXubb1pc7P9lu2tjr7lfeduO92+cMftzuV+Zv/1gRUDfXdD796/F31v8D7n/tiD5AdvHmY+nH608THmceET6SflT1We1v5m8FvzoPXg2SG3oRvPgp89GmYPv/w9/fcvI/nPyc/LR9VH68fMx86Me4zferHyxchLwcvpVwV/yPxR/Vr/9ak/nf+8MRExMfJG+GbmbfE7pXeH31u+75oMmHz6IeXD9FThR6WPRz7RP/V8Dv88Op31Bfel4qvB145vPt8ez6TMzAhYQtacFEAhDsfFAfD2MKIbIgGg3AKAuHJeS88ZNK//5wj8J57X23NmDUCtMwDhiPt3Ioy4/kYApJB1Vg6FOAPYwkLsC7p3TqPPmq8xInuvm1pbuffT3TeCf9i8fv9L3/9cwWxVS/DP9V9FigNaPMzr9gAAADhlWElmTU0AKgAAAAgAAYdpAAQAAAABAAAAGgAAAAAAAqACAAQAAAABAAADG6ADAAQAAAABAAACzQAAAAB0PIBTAABAAElEQVR4AeydB4DURNvH586zv4KoWKliw967CFbsvXdfX3vv9bP33hUFexc7Ik3F3jsCIoJS7CJ2VO6+5z/Z2U2y2bu9ox13vwd2JzOZTJLf7mXzzzzPTMV6m95TU1Nd4yKztKLC1dTUuIpcSSGfq5O5vtpVhCZi632Rz9v6ovZyBbH6voR8Cf7w4vthBPj74O8j8/rM9YHrA9cHro+l7t+4PnB9KPf6YLcZqipgWfcbYV3m+sqSv88V6258t/10yYJa8JnUW9Y6K8sojor0nrEy1WoyW9/6ya3JQQACEIAABCAAAQhAAAJZBPKP/bNWZpRFsiNzq0iNlNimuHiWtovveI6EQWisIrdUyEcbFfJasvo5bRDlou1r8u2Uak/lue1zx5LIW5vF+4/2HL2zHj58H/Snw99DdAHh74G/B/4euB5wPeR6GF0HuB6WvB4amsT9tlVM5pXL4qf7dt3dx+vn6lnPR/H+wn1+qK/UXutsfFeJLoWsYivzxdG6Qo3Ckt9z/i2jPKMoXz1qvJBlCQIQgAAEIAABCEAAAhCYAgKRMMhsIHNVZqFtHpUX1tqSzxRKCvsolFVVSJlIAKgsn9pCutxV59fX1Fhl/ZcDlt8uykfbW5nakameT+3N1zN15NOQT6fxdmyd2qm1Puvhw/eEvxOuA1wHuA5wHeA6wHWA60BDrgO6zfY35+F+uzLHMaRpPeDr2Zv+h/t97bjCNii6b8/VCzEbfltrv9BdErYxgZALSAxtBnepfJvah4mRsD4sRPX0rvVRe5Yk8lF55HYVrxfqk2bxKvCED3z4u+HvgesA1wGuA1wHuA5wHaj7OhCcpwp/L3lNkb8/lxLIOVXZl6rwvbIA8ERevCtcYnsTJvqXPA4rWXeTu2NqwFYXWrVWVN1eua18VjJGeZkV1OTzhXrRdlpv/xPtWVmoX1Qe1U/u38rqYzrActulXvQ5wgEO+nvme8D3gO8BfwdcB7gOcB1onNcB/yNd5g1xvf+ObYPY566ODJ/3KsIyystyPRyRR5QV5lWGiYnY9q7S1qVUSZUXBGrDKwlbsA18j4Q2zJVp0e9YbzZMrs+rzHoz2i3W0nXr0tGtusoirlOHVq5VqzldpXaEQQACEIAABCAAAQhAAAIzJYFqu+efMOFPN3L0BPfe+1+7518a5caMnWjnYkrDoitkuuP3PSEmDqQPKjSdRlSYL69Yd9N7TT1MzlePKuS2sGo13gdL8RoSGaEBExlt5nUH7ruK23zjTrYtBgEIQAACEIAABCAAAQg0ZQL9Bo10ve5+z3017levDSQ8vONUpQkQLxNySsPnrUDr5UYlERGtyqVWkqvqN6zx8sVLDd8Dsu1WS7tTjlufHoym/G3i3CAAAQhAAAIQgAAEIJAioB6PS69+xT3ZZ7h5V4UYDSmHysiLypa8jvAxHM7ZPBs7nKNgDplPc6rEyw1bjoSGrfTBF87tv9fK7rgj1vGN+414gwAEIAABCEAAAhCAAASaBQEJjA3Wbe/+/bfaffDRt5F+8FJCPRmmJhTfEZVaEgWRm6DQSlmU+nff3xE5ZNmiFx3bbbWUO/S/q0dVeYcABCAAAQhAAAIQgAAEmiUBaQJpA98x4bVCpBc0iq0svJsjVeQylS/1/R6SH7nID7/CYjTatvCuUz7LGwQgAAEIQAACEIAABCDQrAkorEIaoaaiOhqVymhIQ4QQDSkOGzQ3pzx8T4Ytmx9WdU5o+B6NmmiD/+67KjEazfrrxMlDAAIQgAAEIAABCECgQEAj0EojaCAprx9yuqJG+iHXw2Gh47GIjVyFyO1K7xqlyrn2bVrYqFNL+GXeIAABCEAAAhCAAAQgAAEIiIA0Qrs2LU1RRJ5Rft6NXE4x336cKq88vCIxteG7PqIuEI/QlEm3Lh38Im8QgAAEIAABCEAAAhCAAATiBDbq0j7XkyHBIT0RpertqFTEeIWpDhVrRYXNqyFFEkrU77Hayov5tbxBAAIQgAAEIAABCEAAAhCIE1h1lTY5/aBSxYOHfzWuKorRiFZ4wZHr4fBx4ha/IZ+rxTvOF2+PZQhAAAIQgAAEIAABCEAAAp5Apw6tvGZw1RYObnEc1aYfnCYGN6uK92KooMLEhno1Kqo1GpWCw6vdfK3m1CoMAhCAAAQgAAEIQAACEIBAgkAr0wrSDOqssIGpTGcoUkMeUxWuSpIi+FZpSfl8ie/lsCGrTKFgEIAABCAAAQhAAAIQgAAE0gSkFXykhhcYQUmoVo3FbPjxqEyB+NgNKRFTIart36RIvHNVuk3yEIAABCAAAQhAAAIQgAAEPAFznjL9oEXTD/6fejqsZ8OcqrwSqdB4uFo/2eLGpUosr5IKy2MQgAAEIAABCEAAAhCAAARKEVAcuLNOC4VhuGpTHerIMC1RWeMXrNxSK8mtKKQ19GwYDAwCEIAABCAAAQhAAAIQKE3AhIbpBnlLSVN4qWFpbgZxWykhot4Nv2ixG35Bo1GVbpI1EIAABCAAAQhAAAIQgAAEvC+U9W7kNYSQmLaotKgN36nhezVUKCVir5z6yHWHKI9BAAIQgAAEIAABCEAAAhAoJlChYaii3gvTDxITUY+F9WzkYjWswBf5fLTSKxS6NoppUgIBCEAAAhCAAAQgAAEI5AlIPYRXpC8iPaFBcKNOjShv1UyJ5ASGjyr3iiPfDgsQgAAEIAABCEAAAhCAAAQSBHzHhtcVJh5MV0R9GxXmRmXmdUYuRsNHkPuCnMqomZxoiAwEIAABCEAAAhCAAAQgAIE4gRqvGaLeixrTFd5nysdsmOxQtHikP3zGL0f9HcprHQYBCEAAAhCAAAQgAAEIQCCbQNATXkOYfogUhHo2TIDkojVyPRwhb6W+tyO7QUohAAEIQAACEIAABCAAAQiIQOQpFdKgLjT0rZmUhyqEPox8GrZSJQwCEIAABCAAAQhAAAIQgEAGAU3gp7hvn9r6oCeimA0vKqKttBiy0iRhOaNNiiAAAQhAAAIQgAAEIAABCHjNEFcOQUNUVlRUegUSqQ+pEekPS3OxGlqPQQACEIAABCAAAQhAAAIQqI1A0A8+5tvUhuREZU1uno0oaly9H9G8Gz5ew1pTHoMABCAAAQhAAAIQgAAEIFCKgHoy4npC9ZSv8gqkxmSH/quWoseVz/V35BWKtsAgAAEIQAACEIAABCAAAQikCGj8qUg3JFPr2Yhqlk5zFVINkoUABCAAAQhAAAIQgAAEIBARsIiNIl2hng2FZMhTSp0ZMnVvKK/avqsDseG58AYBCEAAAhCAAAQgAAEIZBKoMN2gGA3Jh4pZ7JWLAa+UsPAqxFb41OcjgRHKM1ukEAIQgAAEIAABCEAAAhCAgBGIdENuLNuYvrChqORXZTW8FIlSn88VSZdgEIAABCAAAQhAAAIQgAAEShEIesLPs6EeDnvV2Js5UYURcYO7VCGf698o1SblEIAABCAAAQhAAAIQgAAEop4NP9uGYBT0RNSz4XsvfPeGlyGKJo96NEybMM8GXx8IQAACEIAABCAAAQhAoFYCBf3g/Dx+qqyeDcVqxDc0h6t0Pr6aZQhAAAIQgAAEIAABCEAAAmkC0hBeR8T0RDQ9eEJdRH0a6Y3JQwACEIAABCAAAQhAAAIQqI2A+jdkIfViI6U1kj0bUX3eIQABCEAAAhCAAAQgAAEIlEUg6AuL2SgoD7+lRY1HSkTvWhnlymqVShCAAAQgAAEIQAACEIBAMyVQ0A+RgkjEbOT0R97HSnl7+UFzmykvThsCEIAABCAAAQhAAAIQKJOAYr8j/RApixoNfav+i5wKyaXpfJmtUw0CEIAABCAAAQhAAAIQaJYEIj0RdERIq8RCyiPq6ojIREokWuYdAhCAAAQgAAEIQAACECgm8NjjT7uhwz9zQ4cOL17ZwJIdt9/G7bjDNg3cesZtlqUnpC+qNI1GhU0p7kMzrFZFpemQybZGa3P5GXfY7BkCEIAABCAAAQhAAAKNj4CExmNPPD3VDyy0ObMJDt+vkeu9qMjFfCupqjGh4Xsy7M2n1bl5NnzGyiyPQQACEIAABCAAAQhAAAIFAkEUFEqm3pJ6S2Y2k2Lwod4mMGq0IKVhSaVS+2/5nGdVPo1OMSiTme2EOV4IQAACEIAABCAAgalDwLsLDZt6rkJT56iabitT0y1relFK6AlTFyFfFQab8grEjqaQRocW8tPrQNkPBCAAAQhAAAIQgEDjIDDUBMaFF18ZHcwTUXLGaSe4zsss3TgOkKNoVASkG6IODUvtn/KVPmZDvRm+R8NSxWzon3o8VGZ5DAIQaFwE/v33Xzdw4CB30823uDFjxpQ8uC222MotuNAiiddzzz1Xsj4rIAABCEAAAnECjz3xTDzrl4cOnflcfIpOgoKpTsDrBq8pchrCL1dYzIb5UsnHSubTXF7L/uUL/eoZ/tazZy83bNiwxHF06dLFbbPN1okyMjMHgRdfHOz69OlT8mBnnW02t+gii7jF2izmOnbo6FZaaUUvgEtu0ExW/P33326ttdZx48aP92d87rnnufPPP88d/L+DmgkBThMCEIAABKYXgSx3HsUqzGzBy9OLV3PeT5AMPtVbrr+iKt5vEV8WrHR+RgMcOGiQGzTo+cRhzDnnnIiNBJGZJ/PJJ5+4u+6+p+wD7tSpk9tn773cHnvs7lq1alX2dk2t4tNPP5MXGjo3dVHeemsPd9B/D3SVlX7qnKZ2ypwPBCAAAQjMIAIahjUdCN25My5UM+jjaNS7lW5Iv3TAzLPRqD82Di5OYOTIke4ce4p/3fU3uB633uzUqzW9bdKkSe6ggw4u2m2vXre7WWedtah8WhT8/scfRc3+9ddfbvLkyYiNIjIUQAACEIDAlBDo3Hkp53KxGqGdHbfHoySwIC0QiHVm+MKQr7KgDFMhNv5t0CK5vMI6vCmoA4NAIyLw008/uV1328Odftqp7uijj5quR6Yb+n79+xfts7paf0PTx3beaUd33nnnu19++SW/Q/X4TC+xk98pCxCAAAQg0OQJKBD83rt6OAWKK1YD96km/5E3+AQLHlG25PWEmrKYDZtIw8dmWLy4/1eRyytiI/K5mn43UQ0+OzZsMgRatGjhNthgfX8+6kUYZhe3sWPHFp2fbu4vuPAi17ZdW7fD9tsXrW/KBXPNNZd7843X3BNPPOmGf/aZ2267bd06a6/dlE+Zc4MABCAAgRlMQKKDEahm8IfQyHcfejKkILye8IKjRm5UGntK5segyqfRgFWSHAWd4qvxBoFpSKB9+3bujl49E3uYOPEXd99993lxoVGY4nbSSae41VdbzbVt2zZe3OSX559/fvdfi9HAIAABCEAAAhCAQGMgEFcUcV1BzEbGp/Ptt9+6r776yn399TduscUWdcsss4ybe+65M2qWV6QA3tGjR1v34zA3T4t5XMeOHf0oS7UF88pdJ+2aM8sss5T0ydc+0jfiGoKsqsp/xCUPVL0Ho7/80o35aoybXD3Znlos42/ctW1jsZYtW7jDDz/MrbnmGm6vvfZxE37+OX9ociU688z/c3fddUe+rK6Fhny+YivG//yTFDthX//880/+sxHzcvh9//337uOPP/HcNdpWOxNas5UR99HQzzoca7npzz9PdKNGj3Jjx4x1887b0rVv394tuuiidX6nym2fehCAAAQgAAEINB0CoWcjnFHI212RtEfMcnlV8JZYGQqbXqqbe7ml9Ox1h3vnnXcSJ6gbx3bt2rnddtvVHXvM0WXdbOlp/E033eRef+MNN2TIp+7XX39NtDn77LO7vc3P/sQTjnd6Sp22U089rWikpi233MLdeUevdFWfP+/8C9yNN96UWNdlgw3co48+nCgLGYmf22/v5R586KGE77/WS1itssrK7sILznedO3cOm8zwdPXVV3dHHnmEO/+CCxPHMmDgQKcb99atWyfK45kp/Xw33mQzE4tD400mlhfvtGQ+/+AD97uNNuqWz4cFHcN9993vnuvXz4sMiZ64SXx269bV/d9ZZ9bK/YUXXnS777FnfFO3/PLLu+cHDUiUNSQjgdu792Pu8iuu9AI53YaE1NZbb+VOsO/t0ktZ0CAGAQhAAAJNnoBmD9eIVBqFqvPSSxG30eQ/8YadYEIy5PSEWqpUYEYQFj7NyDdslzPPVno6vtfe+7jDDj+iSGjoLPQk+Ut7+n/ZZZfbjda2buTIL2o9Oc0fsdba67irr7nWvfHGm0VCQxurR6GnzRuyxppru2eeKZ5rYrvttyvaxyuvvFrUexEqaZ9py2pDdfr0edZ17bax63HbbUVCQ+t///13p31ttll3E0w3F/WwqM6MsgMPPMC1mnfexO7V6/Co3SCXsqn9+ZbaT23lijvZaONN3Yknnewn40sLDW2rG30N7dxto02KBFVtbU+tdT/++KM/xiOOPCpTaGg/Yi1RvuGG3dw555w7tXZNOxCAAAQg0EgJBKGhw9OcGxIdKsMgkCZQSk/YUFQ5D6ta0nRjTSn/559/egHx/PMvlHVa773/vuu+xZZOIyJl2ZtvvuX22Xe/kuvT2/z222/u6GOOdaNGjUqsUsBv+km9bprfe+/9RD1lvvvuO+s9GZIo1xPorawnJG0PPviQO/C/B7k/MoZPTdedZJPHaahZiazGYup12SLjvAYMyH6qP7U/34Zw0E389jvsVGvPSLxdiY7rbXjfJ558Ml48TZf/Njew/Q840H366adl7UfHqNnLe9x2e1n1qQQBCEAAAjMngaHDi2cLT8+7MXOeGUc9tQn4no20njD/KevZCKNO5fRIRn5qH0xjak8uOcOGDy86pP/85z9ulZVXdouZj3raJk6c6C7NuAFXD8hpp5/hey3i2+gGeauttnSnn36aW23VVeOr/LIEx7HHHZ8oV3yG3FXS9uKLL6aLXFavxvrrr+/mm2++RF09XT/9jDN9T018hdzEFEeywgrLO02SmDbdVI4dNy5dPMPybdq0Kdr3GIsryLKp9fmuvfZabtNNN/FuTln7kduU1uuVdou7+uprfQxQfDt9vuuss7Y7zYbv3aJ798xha0888WQnd7zpYXfccaeTUI6bvj/777+fu/22HuY+eIzTpIppO/vsc9yYMWPSxeQhAAEIQKCJEMiaQZxJ/ZrIhzuVT8MrCbsX9hb0hPlPVVZoWCq72VQPh3+Z37jyoayiCc9IPGzYMO/KlGatYOThwz51/fr1de+//67rbXEP6Rv3e+651302YkRiU8VmaFbstPXu/YgfYUnxHn379nE33XhDuop7++133N/WkxC37bbdNp71y/LXT1uWANnehkNNm3opJGzipqDf/v2e80OpDho4wA355CO3yy47x6s4TRh34QUXJcpmZKZthtj45uuvi0TU1Px8L73kYnffvfcUjZQVONx15x1+veqstNKKodiniotJ2xkmPJ984nF33LHH+OB2DWUrARI39WR99PFH8aJptvz6668XtX3hhRe4yy69xG277TYmlE91Lw1+wS2wwAKJeopDSYuURAUyEIAABCAwUxPQDOJpU9wGBoE0gaR+iLSE/Kcq9TTeixATIj6tjvJa9i/LN1WTn7/OP24bb7yRO+fs/0s8ad7AAq3POuuMeDXvu/7II48myv788w/XffPNEy89GV51lVUS9dTLMccccyTK5As/PNVVqafpCy20UKLe+x98kBiNScf/4uCXEnU0uVva1Ug3rv2e65eopy/FLTffmLg5Vo/O1Vdf5Tp06JCo+9jjjxf12CQqTMfMIossXLQ3uXz9HBulShWm9udbtNMyCiTu1l1nncR3Qj0Ze9ngAHFTb81aa60ZL/LLErDTwz79tDj4ffXVVk3sWt8rBejrOOMv9fRhEIAABCDQNAloEj8JjtCboWUm9muan/WUnlVeO0hD2DR9Pm+NVtn9pu/Q0A5s0ZvKZD4JhVFRk3p/8smnis7n0EMOKSpTwWabblpUno6zWGONNdzdd99ZVC9dIFellVdeyQePx9d98cUX3pUplGl0om222dpGjSrMOyFf+Zdfetk/bVa9Tz4Z4n744YewiU+7dNmgKIi6X7/+TjfkcdPoTqvZHBVp0/CrXTfs4u60EauCSdRoiNzGMALRrLPOFg4rkWr42bhN7c833na5yxJv5Xwn1J7idF57LdnDoO/E9LDFF+9YFBR+xplnuZtvutHNM888+UM4/LBDnV4YBCAAAQg0HwKIi+bzWU/JmQZNEVIJCcmIKj3X1yuuKeLP+uPLU3IAjW1buQZ9aTfPadMQqhqtKcsUdK0eiGBpsRHKQ6q6CugeO26s+3r8127c+PF+pCet/+KLUaFaPtU8F2mTK1VcbGj9Cxa3IdcWv/zCCz6Nv2W5Xw01l7G0zdeqVclzTbtbaVudb2MQG+keDB2bemnmjY1SNT0+X+23IaYg7FGjRrvxX49348aNdxMmTPDNaM6NtFWbm9L0sK5du7r0IAn9+w9wK628qpN43cBigLp06eKWXHKJ6XE47AMCEIAABCAAgZmMgDSDXtIUSoNVeV8qK4pmDK9wNXbTVmlrQz7f7RG2aCLpN998k3kmhx9xZGZ5VqFuGLNMLkv33nufu81G6pHAmBLTRHZyG9IEg8FejMVtvDh4cCj26Wyzzea22KJ4FKqs8+3Xv7/Tq1wrdb7lbj+16qmHJW2KqdG5B8s6X62bGp9v2Ed9UgnPp595xtzWbnVyhWtsdvD/DnKDBg5yg19KuuRJdD77bF//0jHru9itWzd36CEH+8kuG9t5cDwQgAAEIAABCMwYAtIP0hX+nykOiQ69V0pmROojt2TuMpEyifLpmAa/XRN4S7seNeSUdCOmIUPjpmFou3a1uA8Lxp5SoaF29cR+222Swd5qV8HpGr72rbfeju/e9r2h04zbafvhhx/TRfXOlxrut94NTeEGmt09bYsuukiiaFp9vomdlJlRELWGQz7kkMMapdDQachlr2fP29z+++2bnwk96/Qkeu+//wG3oX3HTzjhJJtRPfn9z9qGMghAAAIQmPkJaG6NocOGz/wnwhlMMwJJ/RD1bkhN+J4N7TX0ZESpSiJlEnSJSpqSpUfVafC5KfolZ3Ld2Wef/YqGiW3RooXT6FBLLb20m9+ewKu36Oqrr3affTYibFprut1227hbe/RI1NFwtx07dihrBCttuMACxbOUq7w+1liE59tvJwWWzmGlFVdKnMq0+HwTO6hHRrEPmqwvbnLJ29TigNZcY3U/n8oslu/Tp0/mBI/x7ablsr6nl112qc1sv7eNkHW3629zl2RNPqhj0HfhnnvvdRN/meiHxp2Wx0XbEIAABCAw4whIYFx48ZXRATwRJWecdoLrvMzSM+6g2HOjJJDr04gpCPVtVLgqHW3hdjk69nQ+Km1a7+3atfNzSmjSt2AaenRA/35u7rnnCkV1phqhJ1gfczdJu8hoP888/aRbeOHkCEr32o1auWJDQdxtFlssIWJesFiN0aM7hl37dHZzI+reffNEWcgsY0InbXvvtZc76qgj0sUl8/GYiJKVpvGKgebq89FHHxftZdddd0mUTYvPN7GDMjNy5+rV645EbX1ODz30oFt33XUS5aMsGDxrNvlEpemQWXHFFdyVV17uBcUHH37oBttoZ4PNXU/B62nB+dRTT7vXDni96Fymw2GyCwhAAAIQmA4EHnvimaK9DB36GWKjiAoF0g+R61TEIuRNbEiHRK5TfpU9dVfFvOCwfFM0uY0stdSS7sMPC/MYyN1FQeMamrYh9sH7xb74/zNf+LTQqG/b3pXKAsI1uV4w3fh9/vnIkPXpRhttlBg5KL5ymc7LxLN++d333rPekaRgKarUiArksnbZ5ZcXHZHmCkkPGzstPt+iHZdR8EFGfIY+p7TQKKOpaVZFXP9JjVSmoZklvjWxpV6aI2bkyC/cAQccWDQJ5sBBgxrV+UwzUDQMAQhAoBkSyJrUTzOIM0JV+V8GDRu84/ZbO4m0pjz7ekIx5PSEKFksR0FoeIGRi9nQypDXclO05ZZbrui0FGuhAO9Sprk1brk16dIU6n4ypHg0oXls6NO0afjan3+u39wE26Ym6VOPTHo0rXSd+H6XXXbZeNYvDx06NHNSw1Dxxx9/dEcceZTTCF0z2jT7+TZbb+s++ODDokM58YTjfWxLesXU/nzT7cfz36eGHw7rNDRx2v4zT/F3QnV+yo1Kla4/rfN3m8tUx8WXSLx63XFH0W47dVrcHX/CcUXlmlARgwAEIACBpkkgc1I/u3nGyiMgfmecGrmdSaDde1cPP29JeVvPXLVCR0XQDyEf69kIPRrFaWM+1a/NTaXcGYxbtJjHJqXpnD+do486yj322ON+huxQqBv4HXbcyV1uvuurrrqqL5bryOjRo+3G/A7X47bb/I1ta5tJeaeddgyb+XQxc3VK25133eV2thm5NXeFTKMSHXnk0W7IkOKb0JpaJlDUxIBt27Z1Y8aMSe/C5/Ukuvvmm2WuU6HcsPbaa0933333J+r839nn+Hk6jrEn12Giwd9//90Hnp9w4klON/nDhw/3s13PPffciW2nReb33//If54SVBqyV7OyD7D4gSyBtp2JsN122zXzUKb256udaI6Uueaaywfnx3f68MOP+Anvwucc1mV9J+R6dNaZZyR6vHr27JUp/Kpr+U6EfUxpmiXK7rn7XrfnHnuYS2HyM9dwuGnLErLpOuQhAAEIQGDmJNC581LO5WI1whnoKT1WOwH1ZkhkZJlEh14Kum9KPR1Rz0akIyLPKZ29j9kIPRtBfxTns0A1ljJN3JY1eVvW8a2zztr+pjms00Rmp556ijvnnHNDkU8130H3LbayoOoFXFub2fkLm18iPkuyxMfRxxzrFlywtdPs4sFWXmklp5vOuOlJ/HLLrWDBwJv4Ga41elSpnpOs+SPibenG+oYbbowX5Zc183n6xjC/Mrdw7jln21wKzyeG0dVoQldedbW73tpd3FyqqmuqvXuWel+CKUbigAMPcg/cf693rQnl0yLVJHbbbLtdWU3LDe6KDLeqsPHU/nzVrlzaNNdE3P1O5Zdccqm7/vobnIbgPeig/7rDDj1ExX7yRr8Qe5s0aZJbbfU13YY2cWKLeVq4N958w423eViy7OeJP2cVT9Uy/V1oksl4r9EwE5hrrLm20/eqW7eu7qcff3Kvvvaa69v3uaJ9a3sMAhCAAASaJgEFgutpvALF5QaE+1Ttn3NwmSongD7OsimIDikJhWZEFukJ5as0MpKUiObXsDdzrLJ8dTTfRsjntmqSieYL6Nu3b/5pevwkNXxqqSFUNavyQqmg7z322N31tGDgkSOTsRQSKo8+2jvedOay3JZqM03WV0psSIjUZRpt6MorrnD77rd/YnJCbfe3+ezrBrOUdezYYZoLjVL7zirXpIbXXH2V0wzdtdnU/HzDfjbccMMisaF16hHSS2IimHrSdtpxR9f7scdCkU8l8hTsXpfV9Z2oa/ty119//XU2CtW+Cdc8ffcfeuhh/yrVzoEHHpA5C32p+pRDAAIQgMDMSUA3z+XcQM+cZzd1jroho3Q1JcHhFYX0hJSF9IRSy1dKgHgNElJ7oJ3OT52PoHG2okDix3o/6k455WSnUYLKsWWWWcb1fvRht9SSSyaqq2eh5+09bCbrlonydKZ169aZQejvvf9+umoiv9JKK7oOHTokypSRa89mNoxqObbJJhu7/v2ec2qrHNMQrXKxuuTii8qpPs3rdOrUyV1xxeV+uNW6hIYOZmp+vuHkjjv2GD+5XcjXlV5xxWVu+eWXr7WaJiTU6GBpGzLk06K5XNJ1pkZeM8NrJLauXbuW3ZxGALvowgvKrk9FCEAAAhCAQFMkoLgM9f5MiRiT6JjZ4znS+iHkNdmf79nw4iOXkSaJ55Vtyqbha084/jhzMRrkZ9/WLMlZpriJiy+60GZa7m+uUctlVXHyX3/zjdf95Gi6UY+bn927e3c3+MXn3cknnRhf5ZdffvkV/2S8aEWsIKsHQy5aiiMo15Zffjn3XN9n3bnnnuNvgmefffaiTSWY1FPz/KAB7ozTT/PuQ0WVpnGB+ClOZb311vU34r17P+Jee/Vlt+8+e9drz1Pz89WOJSr79HnGbbll8UztcrMKsS/hIFW/33MR75Ytk0JU9SVE+jzztImoy9z88yfnQ5HL3WuvvhaamqapPnO5yimeRC5qWabPRL1KAwf0dzdYb4jEHAYBCEAAAhBojgR8XIbNORLvnZhSDjOz6Ejrh3x+/c3uq/Hu+earX6OXm+xqqidb98Zk89+Plt9++agpZTfTbT9x4i8+MFpuLIrN0E3vggsuWK/z0JCioyzeQ682i7WxSf2WygeK16uhaVw5GvL3K5uV/DM35xxzuoUWWtCpByE+h8g0PoTp3vzU+Hx10BNsBCnFmXz33ff+O6I4kdqEn+J9FHQ/YsTnvp6EXzk9NNMdkO1Qxzl27Dinv4F5W83r2tucMYssskijcqebEVzYJwQgAAEIQAACxQRW3+B6ewg5i3lQzWIPqWcx9xJLnb022PxBExvynar2wcEWsGE6418vNiab2FD5W4OPKG6REghAAAIQgAAEIAABCEAAAkZgjS43uIqc2Kis1IC3lV5sVEW9GRGjyLcqjEZlOkPF9iQWgwAEIAABCEAAAhCAAAQgUIqAFINcp5TKk8NnbLlKhWGF962yvCxsEOV4hwAEIAABCEAAAhCAAAQgkE0g6IigLUKtSq8+Qs7SrHxsNYsQgAAEIAABCEAAAhCAAAQSBKQhgsX1RJUNhuMq4muDLMnV1noMAhCAAAQgAAEIQAACEIBAKQJBMigN+kHLlSEkIyiQeF6NhbyWMQhAAAIQgAAEIAABCEAAAqUIeE2R68hQYjEbmtev2uI24npEm0f5QnmpJimHAAQgAAEIQAACEIAABJozgbhyCPpBaW5GrqTQqCkSHs0ZHecOAQhAAAIQgAAEIAABCNRGoFg/RPpCA+DmpYVvwJysgvSI8rU1yzoIQAACEIAABCAAAQhAoLkTSOqHQk4+VH4EKgHy7lUWpJFzs4qYJTLNHSPnDwEIQAACEIAABCAAAQikCQTJEPREWJ/o2QgaJKS+UiITNiOFAAQgAAEIQAACEIAABCAQEQiSwachY6sSPRsBVlAmPp/IhBqkEIAABCAAAQhAAAIQgAAEIgIJyRDLVCpEPFIg9q6FSsVsaDn3yoWQAxICEIAABCAAAQhAAAIQgEAWAcmIgn7wOa8tKm3UW4vRsAJTIH5ODZ+3ylIkelkegwAEIAABCEAAAhCAAAQgUIqA78yI6QmvNCxfiNnIdWSETg2l+VepVimHAAQgAAEIQAACEIAABJo9AT9reExPeCCW905SNRIWMfPKJJZnEQIQgAAEIAABCEAAAhCAQCkCRfohpy8qK1LzahTnSzVJOQQgAAEIQAACEIAABCAAgcghKs/Bd3NEucqa2LwaUiTxvKr4OI6oLu8QgAAEIAABCEAAAhCAAASKCISeDZ/GBEQYe8o2CDOHF1K1kvKwKmqYAghAAAIQgAAEIAABCECgeRMImiFKC7lK35uRZxOt8KNT5cqCSslXYQECEIAABCAAAQhAAAIQgECMQEEzFISGVlf56TRsbagQc7GKejVC/VhjLEIAAhCAAAQgAAEIQAACEAgEJBnCK7hGKV8ll6ogNHyakQ+NkEIAAhCAAAQgAAEIQAACEEgTCHpCU/R51ylTGiqrCgpEGY2DGyraYhAlWsQgAAEIQAACEIAABCAAAQhkEgiaws+rkauhMi88whYSGkFshOWQD3VIIQABCEAAAhCAAAQgAAEIpAkE/RDKlbeeDWmOGvtXGIVKK5TTGgwCEIAABCAAAQhAAAIQgEBtBCLdEPRDlOo9mkE8LyuCvEintTXNOghAAAIQgAAEIAABCECgORMoeENFOiKMblspueGLgr4IjlbKh1dzJse5QwACEIAABCAAAQhAAAK1EsjrCS3E9EWls5Bxr0TszacKIZcprwJf6Et4gwAEIAABCEAAAhCAAAQgUETAS4agH2L6olK9F0GJ+Dk2fMa2V7mWQ76oSQogAAEIQAACEIAABCAAAQgU6wkvIewtitlIC4p0HoIQgAAEIAABCEAAAhCAAARKEKhJ6YeQt54N37lhm6mGvSyfX/aNhSAOn+ENAhCAAAQgAAEIQAACEIBAgkAYfyroiZCvVGBGCMuIfK1CLoRrFPKJFslAAAIQgAAEIAABCEAAAhAwAkExBD0R8r7bIvR6hDQQS+dDOSkEIAABCEAAAhCAAAQgAIFAIOiGdBrFbIRapBCAAAQgAAEIQAACEIAABOpJIPRkhM1CvrLChpySAsmrED8EVSyfXxM2JYUABCAAAQhAAAIQgAAEIFAgkNYTIV9Vk4vZkPrwCsRPrhEtR4ok6JJCYyxBAAIQgAAEIAABCEAAAhAIBIJiyOsJUxtarlK/RtSrEb2rT0MrIjVSWBsaIoUABCAAAQhAAAIQgAAEIBAnEGmHgobQOimJKgmLmpzAiIRGJDX0LgtplOMdAhCAAAQgAAEIQAACEIBAkoD0RLBIP0QdGFWK2ai0kmqt15pczIbqV8TzYWtSCEAAAhCAAAQgAAEIQAACMQJhiFsvOUJMuGUKMRuRBLFpN3LzbljeF+ViOGJtsQgBCEAAAhCAAAQgAAEIQCBPININph98B4blfKqYjdxCSPM9IFbuezbyTbAAAQhAAAIQgAAEIAABCECgmIAkhfeMiqXSFzaDeOjByG2UzueKSSAAAQhAAAIQgAAEIAABCGQRCD0bfl1MT1QpRkP/fAXfrZEbgSovT/xCVpuUQQACEIAABCAAAQhAAAIQ8HrCx36rO0P6QqmVRj0bUhpSICEVsFheWQwCEIAABCAAAQhAAAIQgEAWAcmIuH4IusJ6Nrx7le/ZkP5QRaWhXIsYBCAAAQhAAAIQgAAEIACBUgTy+kEL9vIdG7boR6nySiS2ZTofW8UiBCAAAQhAAAIQgAAEIACBBIG0fgh5ExuK0YhbyOdKgyyJV2EZAhCAAAQgAAEIQAACEIBAjkCkHIKqCHrC92zk5tWwipECCfkw30bQJbCEAAQgAAEIQAACEIAABCBQTCBTR1i1RM9GUCTptLg5SiAAAQhAAAIQgAAEIAABCEQE0voh5HMxG1HWR3NY/Zq8Y1UoByMEIAABCEAAAhCAAAQgAIFsAmn9EPKVkhNxSZHOJ1Zmt00pBCAAAQhAAAIQgAAEINCMCcQ1RHy5Sv5VISojnqqS8hWhsBnD49QhAAEIQAACEIAABCAAgdIEgmQIqWpKT1TFlUfYXGWykEY53iEAAQhAAAIQgAAEIAABCBQTCJoipKqh5XzPRlAhSvVCaBgEDAIQgAAEIAABCEAAAhCok0DQEqoYlpVWVlRU2pBUNhauzafhlYilPmpcZSqpjHJ17oEKEIAABCAAAQhAAAIQgECzJBAph6AnCvqisqamxlUbEksSqSip3FUHbaIMBgEIQAACEIAABCAAAQhAIElAikGvSFcU9EUhZsM6MRQMrkrBhUp9GjUhY8sYBCAAAQhAAAIQgAAEIACBNAFJBr3iPlHmMBXLS2VkWanyrLqUQQACEIAABCAAAQhAAAIQEAHTEVUWrOFVSFxTSIXIrcqbn4kjt0wCAQhAAAIQgAAEIAABCEAgTUDdGsFy+sKHf0tVBF3hU3tL5kMubE0KAQhAAAIQgAAEIAABCECgmECkJwr6wtyqop6NKI0kSXjPxZMXt0IJBCAAAQhAAAIQgAAEIACBBAGpBymJgr7wMRw1vrBQM50vrGEJAhCAAAQgAAEIQAACEIBAmkDcj0qeUlHeptgIyiO3gZUnqiqAA4MABCAAAQhAAAIQgAAEIFAOgZieqCRmoxxi1IEABCAAAQhAAAIQgAAE6iIQxWwUYsC9G1XouyiV1tUo6yEAAQhAAAIQgAAEIAABCKT1RC5mIwmG8aeSPMhBAAIQgAAEIAABCEAAAuUTCHqissLHbBQ0iEI0fBSHj9WwJWI2yqdKTQhAAAIQgAAEIAABCDRLAhIR0hTSDyEGvMJVafK+oDx8GvKxtFny4qQhAAEIQAACEIAABCAAgfIJSD9Ib0hU5ASH9WzklEcuzcqXvwdqQgACEIAABCAAAQhAAALNkkCGnqjM92xIgZhl5aM1vEMAAhCAAAQgAAEIQAACEChBIENPVFVU2lQbNdW2hUkRWUWU10QcvsTWYxCAAAQgAAEIQAACEIAABEoSUK9GzkVK+sK7UVlZVU11tXerqrEuDfVqOBMeUVrjqpW39RgEIAABCEAAAhCAAAQgAIGSBEw3eD2hCtIPlbN4jVEVjUalUvVjRC+JEvVsWB+HBXmoDIMABCAAAQhAAAIQgAAEIFCCgEkGrytMO+R7OKysMnKtMlGR2y7kldVyKM+tJoEABCAAAQhAAAIQgAAEIJAiUKwnpCOsZ8PebSnff5Fb0Eq/mF+Rao8sBCAAAQhAAAIQgAAEIAABIyDJEGSD9EXIV0poSFjIfJqRj9byDgEIQAACEIAABCAAAQhAoJhA0BN+TUxP+KGm8iokt106X9wcJRCAAAQgAAEIQAACEIAABCICQT8EHiHvxUZCiViNdD5sRAoBCEAAAhCAAAQgAAEIQCBNIK0fQt4GnNKYU9IeuVcir2Lm2UjDJA8BCEAAAhCAAAQgAAEIFAjkZuizAtMUXk9onUa31fwauXo+zcjnVpNAAAIQgAAEIAABCEAAAhAoIhD0hF8R0xPEbBShogACEIAABCAAAQhAAAIQqA+BEKMRtgl5YjYCEVIIQAACEIAABCAAAQhAoEEEEj0b1kLIV7rKnIdVmCk8I9+gPbIRBCAAAQhAAAIQgAAEINAsCPiejAw9UemqczEbwbcqI98sCHGSEIAABCAAAQhAAAIQgECDCITYb79xTE9UVpgC8X0buTQr36A9shEEIAABCEAAAhCAAAQg0CwIBD2hEajieqLSOjTyM4eLRFa+WRDiJCEAAQhAAAIQgAAEIACBBhGIejaiTeN6oqpCMRq5CA4lXonk8r66rccgAAEIQAACEIAABCAAAQiUIqBwDR+yoVT6IZe3no0oZkP6wr9i+WqVSZpgEIAABCAAAQhAAAIQgAAEShAIWkKr4/qiykSHhEfCQj6kiZVkIAABCEAAAhCAAAQgAAEIxAjENUXQEEorQ79FXWmsLRYhAAEIQAACEIAABCAAAQgkCGTpiSrFaLgaxY/n9EjO2SqZT7RDBgIQgAAEIAABCEAAAhCAQJ5ApCYiPRFGo1JZpQI1EiokI59vhQUIQAACEIAABCAAAQhAAAIpAkFP+OKYnqhUgTSIrFQareUdAhCAAAQgAAEIQAACEIBAMYGgI8KakPdiI6FErEY6HzYihQAEIAABCEAAAhCAAAQgkCaQ1g8hX2kD4eZ6NHL6oygfdEm6SfIQgAAEIAABCEAAAhCAAASCh1TQE1H0t0otZqM615MRzbdRnA+6BIwQgAAEIAABCEAAAhCAAASKCUSKIacbcvP2yV/KujUKysMvFeWLG6MEAhCAAAQgAAEIQAACEIBAIBApCvVs2Cv675dzo1HlujxU2wRJoi8jkVEFDAIQgAAEIAABCEAAAhCAQIFAQjJ4PRHpi0rr24hiNpTXKyNfaIYlCEAAAhCAAAQgAAEIQAACSQJeWmToiUpXnevJkAKRJMnIJ5siBwEIQAACEIAABCAAAQhAoEDA92zoLaUnqkLMhsolRmrs3U8qHvJ+RnHLYBCAAAQgAAEIQAACEIAABDIIeMkQejYUA55bNqep3ChU+Y2K8/lVLEAAAhCAAAQgAAEIQAACEEgR8D0b+bKCnqis8PNqKH48kh/pvObhwCAAAQhAAAIQgAAEIAABCJQiEKmJYj1RWZMbBze4WKXzUSBHqWYphwAEIAABCEAAAhCAAASaO4GgJcQhrieqgmtVHJDKZEqTXSK+mDcIQAACEIAABCAAAQhAAAJ5AnFNEdcSlUGFBFGRzudbYAECEIAABCAAAQhAAAIQgEAGgaAhtCosK7WYjQpNrZGL2LA0n4+iOKJQcm2GQQACEIAABCAAAQhAAAIQKCYQ6YlcFHhMT9gM4oVocamPQj5X7iffKG6QEghAAAIQgAAEIAABCEAAAiLgdUQY5TavL2qi+cJzfRiFEanCyFT5/g4gQgACEIAABCAAAQhAAAIQyCaQ69Mo0hN+XNtIiRQ2TOcLa1iCAAQgAAEIQAACEIAABCCQJJDWDyFfaVEbvv8ierONivLJhshBAAIQgAAEIAABCEAAAhCIEwgjUPky687weXurdNUhNiPna1WUjzfDMgQgAAEIQAACEIAABCAAgSSB0JPh0+qcrrBMpUabCsqjVJpsihwEIAABCEAAAhCAAAQgAIECAa8jLJvWE4XRqGJyxC/G8oVmWIIABCAAAQhAAAIQgAAEIJAkEKSDL7VM0BNVPkajpsIKcnpEPR2+guWt3E/CkWyLHAQgAAEIQAACEIAABCAAgTwBkxBm9qYFxWwotZf1bOSUh60OCsSnsbw2xSAAAQhAAAIQgAAEIAABCGQRSOuHkPdD33ohYluVSrMapAwCEIAABCAAAQhAAAIQgIAIlNIRzLPB9wMCEIAABCAAAQhAAAIQmCICoScjNBLylRUVNiCVlebGpDLXquJ82IgUAhCAAAQgAAEIQAACEIBAmkApPVFZU1PtYzU024YUSFY+3Rh5CEAAAhCAAAQgAAEIQAACgYDXERl6oko9GlGvRsHTKuRDGhohhQAEIAABCEAAAhCAAAQgkCZQ6NkoaAstVUYqJDkiVShTI1rGIAABCEAAAhCAAAQgAAEIlCKQ1g8hX+WHwI0rCpMlihq3Wca9aT0GAQhAAAIQgAAEIAABCECgFIGoZyMalcrrC6uosqqanNAIekN5LedfYUWplimHAAQgAAEIQAACEIAABJo9gSAbvL7IdVhYz4bNHm5r8h0Yua6MKF7DyunaaPZfHABAAAIQgAAEIAABCECgLgL5aA3TD6Gnw2YQDxokt7nlo5JceXp9XXthPQQgAAEIQAACEIAABCDQDAkU9ENQGJWuUhEapj3Ug6GX5b0WieWbISlOGQIQgAAEIAABCEAAAhAom0C2nqh01UGBWJyGFi3vS+wt5MveBxUhAAEIQAACEIAABCAAgeZJIKYfgp6IpgsXjpwY8Wkq3zxpcdYQgAAEIAABCEAAAhCAQNkEMvSEfKi80Ig3UmMVMQhAAAIQgAAEIAABCEAAAmURSOmHoCesZyOsyaWWj5YK+bJ2QCUIQAACEIAABCAAAQhAoBkTKOiHoCdio1GFWI3CaFSRr5V/b8bQOHUIQAACEIAABCAAAQhAoG4CxXrC3KikO6JXGBG3kKrJnEKpu3VqQAACEIAABCAAAQhAAALNkkC2nohiNlJA6MtIASELAQhAAAIQgAAEIAABCJRNIOiJyjBDeOi/UD7SJVFb+ZCOspumIgQgAAEIQAACEIAABCDQ3AgEPaGY8KAnqmpyM4RLfXgFYvmw7FNf2NxQcb4QgAAEIAABCEAAAhCAQH0I5GWD9ISpDeWrIt0Rj8wIJfGy+uyGuhCAAAQgAAEIQAACEIBAcyOQ79mwfo3Qs1FZGHsqwqG879HI0ckrlOZGi/OFAAQgAAEIQAACEIAABMomUNANBT1RWVEp5RH9U19GPm9yxJcWJErZO6IiBCAAAQhAAAIQgAAEINB8CPiejDBfn+kLm8zP/6usqY78qUJvRj5vBbbK5UI6mg8pzhQCEIAABCAAAQhAAAIQqBcBryVy+kEiwusIa6FKo01VaG0w36NhGUs1Lm61ZAoGAQhAAAIQgAAEIAABCECgBAFJBq8rtD6nI1RmM4jnRqHSClkQHuk0Wss7BCAAAQhAAAIQgAAEIACBBAEvHWL6ISxWOsVs+N4L/2byI0wqbnkVVWTO+5donAwEIAABCEAAAhCAAAQg0HwJeD3htYMxMD0R9IX1bKTGo1LQhrdQHvK5YhIIQAACEIAABCAAAQhAAAIxAqEnI+rhqM45S9UoLCOKFM91Y9gmQZLEy2MtsQgBCEAAAhCAAAQgAAEIQCBGQMpBFqUFHeF9pIISidVnEQIQgAAEIAABCEAAAhCAQFkE0noi5DUEbk6H5NqJRElZjVIJAhCAAAQgAAEIQAACEIBAQkLE9EXp0aiMWVAk4IMABCAAAQhAAAIQgAAEIFCKQNANPrW3kPduVJESCXokpKHHo5Av1TjlEIAABCAAAQhAAAIQgEDzJRD0RDqNxWwE/RHSACudD+WkEIAABCAAAQhAAAIQgAAEQk9G0A1hVFsbjarCBsEN/3z8uJ9XI4ojj+LJvR6BIQQgAAEIQAACEIAABCAAgUwCaT0RqYkKV1WTn2cj2k55md6jV1Aovpg3CEAAAhCAAAQgAAEIQAACCQJBO6jQ6wnzp5JLVZXe9AqSQsuyUB7leIcABCAAAQhAAAIQgAAEIJBNIK4d4suVcRWiTYPoSKfZzVIKAQhAAAIQgAAEIAABCDR3AnFNEV+uqqg0j6pqK7LYDevzcBbFYXnDJUnik9xClOUdAk2GwJtvvuV++umnxPl07765/SnwnU9AIQMBCEAAAhCAAATqIKAo7yhuw1LpCdW3e6qqGhMaUh8SGj7N5aU7pDlCLLmqYBBoSgQuufRS9+qrryVO6evxY90ss8ySKCMDAQhAAAIQgAAEIFA7gaivIlIOlerIMPVRYYKiSk9x5UtVk3+am9MkJkc0vXh16OKovf3psvbrr79xO+28c2Jfa6+1trvqqisSZWRmPIFnn+3rLrjwwswD0XeuRYuWboH553fzL2AvS9dZe23XteuGrqqqKnMbCiEAAQhAAAIQgAAEGi8B6Qb/zzSE1xfSEOrZUHeG/Y/e/EIs38jOZ/Lkf93nn49MHFW7du0SeTKNg8Cvv/5a9FnVdmTXX3+DW2CBBdyuu+zsTj/jdDfbrLPWVp11EIAABCAAAQhAAAKNiEBORuSEhCXSGlZY6WM0LOM7MJSqyyPk/Qkog0Fg2hP44Ycf3E033+KOOOJIV12tzjgMAhCAAAQgAAEIQGBmIJBXDF5PWB9HTk9U5mM17CxCD0dQJlEacjPDaXKMTYHAk08+5Xr26tUUToVzgAAEIAABCEAAAs2CQFAMPg2x4Hbm6sfwnRqFNOrkKOTzOqVZgOIkpx2Bo4460r337tv+9corL7knHn/MnXTiCRa/0aJop+nA7aIKFEAAAhCAAAQgAAEINBoCQTFEadAXNqmf+jPSPRjJfNApjeZcpvqBvPPOO+7jjz9xQ4cNcyNGjHDzzTefW2rJJd2SSy3pNt1kEzfPPPOUtU+18cILL7hx48e78ePGu2+/+9bNO28r165tG9e+fXu3swW3L7LIwkVtPffcc+6zz0Ykyrfeemu3+OIdE2XxzKBBz7shQ4bEi9zmm2/mll566USZMj/++KN7/fU33NChQ/05Tvx5ouu0RCd/jquutqpbdZVViraZFgXztmzp2rRpk29ajNdddx23iu1/z732zpdr4f3330/k0xkNFvDss8+6L7/8MuI9/ms322yzurZt27q2to/NN9/crbzySunNpij/+++/u759n3PDhg+3z3ecG//1127SX5NcG/t8dV5rrrGGq2vo3N6PPe7GjR3rj2PW2WZzhx16iF+ePHmye+PNN92HH3zoPvjwQ/fjDz+6Tp0Wd0sYo1132cW+Ry3LOna188orr7rPRnzmRth3asTnnxuX2dzCCy/suWy66aZupZVWrLWtkSO/cO+++6771L4vw+xvorKyMv/30GWDDTzjWhtgJQQgAAEIQAACzY5AUjFE+kLCo0oOVQreqPH9G7ZgpdIiUV6cIn3SFInpJvyEE0+ym9a+JU9P4uDSSy9xk0ZKOgAAQABJREFU3e3mtZTd2uM298ADD7pPP/20VBVfftlll7t99t3HnWkB0HPNNVe+7oQJP9vITRfl81r47rvv3QUXnJcoi2dOP+NMN2rUqHyRRnHabbdd8/mwIJekk08+xU34+edQ5NOXX3kln9d25513rms177z5sum5sP766xXt7p9//i0qU8GAgQNdjx63u5dffjkzrkOiSnblVVe7zTfbzM7rHNexY2nR5ivX8TbcxMV1FsDep8+z7o8//iiq/e577/myG+192WWXdeeec7bbcMMuRfVUcO+99yaG292oW1d/8/6/gw9xAwYMTGwTPqPrrrveXXLxRW7rrbdKrE9n9P075tjj3IcffpRelc9fdvkVJmI6uX7PPVvUo/TPP//YyG5Xu2uuvc5JtMRt4MBBPjvHHHP43qjDDjuUkcPigFiGAAQgAAEINHMChb4MiYlCzmI2crEaBsgW/ZtPQ15lTdA0odsGXbrWKjR02nqCvu+++7vzzr+gJAX1jNQlNLTxpL//drff3tOdcuppiba23XYbN/fccyfKnn7m6cybaVX66KOPE0JDZRtt1M0ttNBCWvRWY75yhx9+hNNNbFpohDohfeihh916623gxowZE4qma/rlV18V7a9Dhw5FZSoYN3acGzx4cEk28Y369e9v4m4/9+eff8aLG7T86KO9M4VGujF9D7TP4Z99ll6Vmb/zrrvdttttXyQ04pW/++47d9D/DnaffJLsyYrX6XHb7W7TzbrXKjRC/XlNVKZd17SPLbbcyou0tNAI2yn966+/3PkXXOi2235H9++/2YIwXp9lCEAAAhCAAASaB4GEfojpC4vZKPRdhD6MdNrUEOkJrp4Aa/SjuC1hrkU77bijPZXe0OkJbtxuuulm9/4HH8SL8svHH3esCbhAzbnZzW1lKXPBWmutNd2sGUO46uY+3psioSHBETeJnLfeejtelF9+8qmn8sthYY/ddw+LPtU+Hu39WKJszjnntLksurodd9jBP92OrxSL004/I140XZZHjPjcHX/8iUX72m3XXYrKVLDnnnt4l6CwUhPwyXVK7lgtzU0rbXJPS/capevUlZdr2lZbbZmo1rp1a7fmmmtkuhTphvyQQw5L1C+V6dmzlxePpdaHco3OdfoZ2Z+PGJ5zzrlO3+tybI89kt8VbSMBIREbN53jlltu4bbYYgs/LHF83dtvv+0kcDAIQAACEIAABCAgAuFOOJ1W3dtjWf+UWE8zw0tPLHXjovRvexrf1Ox2u8H74osvEqclwXDyySd5/3StkN/6rrvtnn/ar5u9k0462Q3o3y8hLFS3c+fObhebH0KCY5edd3Lrr79+vp2JE39xl11+ubstdWOmmAvdyAXbc489vCtWyCt94skn3dprrxUv8styjYqbJsXbbLNN80Vy9bnwoovzeS3ohvyRhx/Kx4HofC699DJ39TXX5uv17z/AKX6ke/fu+bKpuXB7z57uqaef9k3KTer777/3r/Q+JByybohVT/EHxx5ztOs/YICx3tluhLvnXdL0nX3qqafdYdajEzexvvCC8+NF9V4+4fjj3FfWA7PTTjuZWNs+0Yskt6Vdd90t0YOkHo5vvvkmIYxq26niKM468wy3/PLLu58tpuaGG2509953X2KTN9540+8j7e525llnFfUyyFXq7P8706244kpOsSafW+zGc/36ueeff8HtsP12iXY/sDiRhx9+JFG28cYbuR633pKPV/rll1/cwYcc6rcPFS83l6wdtt8+Mw4p1CGFAAQgAAEIQKB5ELjmoiX8fZpc+/WwXakeCvuejeaBIDrLv+2GVH7pcVtuueUSQkPrFJwr3/u46cmvgr+z7Ibrr3PXX3et69KlS15oqF7Lli3cEYcfXiRQFIweN/WCLL744vEi9/TTzxT5zqt3RTe9cdvZboDjPSi9et3hvv3223gVfy7xgHMF/Z5yysk+xiBese9z/eLZqbqs3hrdmOulm3GJjbi1WWwx/zk8+MD9/ssaXxdfPvDAA5zq7LTTjnmhofVioLI0x9GjR3v3n3gb9V3Wd2TggP4+oDvurqZ2JBS22mqroiaHDRteVJZV0NFiSp568gn/3dHgBPqcrrrqCrdMRrD/qJRIVg/DCy+8mGhWx/fss8940bjooou4JZdcwouya6+52gLQ38sLiLDRpZddZiNgh87PqGfuqiuvTNST29XVV13le+3CdhIxip3BIAABCEAAAhCAQCkCzU5sfPXlV27ixIkJHnqKq5vvtHXpskG6yH1uLiv1Nd3waeSluOkGOG177L5bokg346+9/nqiLN2roZV77pl0i9GoWHGTqtQ5pk3nvIH1wsRNLjkzyn77/TcvQMZaXMaUWDo4W704X03jeJSuXTcsOuSsz7iokhXsaW5NcnFL2+bdN08XudE2+lbcPv10aDzrl/ezQQjSvR+hUtb3PP19WX6FFTJ7KzRYwpJLLRWa8qlGu8IgAAEIQAACEIBAKQI29G3zslGjRxWdcD97mv/xx0l/9VBJN2e6WQ024vMRLuvGUuvl5qJhS9XzMOarMTai1Hfur0mT3CR7jc0NdxraibcZynbddVd3ibk2xQN0nzKXqSAI9PRZ+bjpqbrcuOKWPkeJjf0PODBeJb/8lR1n3D6385tRJvehO+640ykY+847e+XPO+t45Oamp+oSEeI93oa+VSD4pEl/Wa/Od0Wb1MQ+w6KVZRYo0L5/v/5+uF0Ftesz/e233/znq2NPW9ZnnK6jfJcSI1ctHAv4D9v983cyLiM+Ilmoo961ck29E/qexk0DBey2+x7xovzy+FTPnoaKxiAAAQhAAAIQgEApAs1PbIwaXcRCIweVO3pQ1o3sgw8+5G66+RY/J0FR4yUK4m4roYqeHEvIKMYg2NPP9HEX27Cn8nt7z4ZYHWvzO8RNsR5pG5U6R8XdpF1t0tuEvG6aVV+xEVPbFBNzuA2ZKlM80Pff/+A+/uRjp+B7xQ0E+/XXX93RRx1jAfJvJNzDtF6jiGlYW41IlcUwtJFO61M3va1ExeVXXOkeszkyJBzLtXL32XqBBTKbnGPO5CAFWZXSn7XqLLzwQllVM8uyel8kPtICJHNjK8z6eyhVl3IIQAACEIAABJofgWLfoSbO4Ae7wZ0SS99AKj7i6GOOLSk0Zp99dj8hm8RCOZYeVeqnn37yk7Rp27QLldrewUaWiptiUtJuYvH15Synz7Gcbcqpo1G6NL+IXooB6NRpcbf9dtv5mcQ1EljcFBszaFA0t0MoV7yKgvZffPHFTKGhmA21mx5JLGzfkFS9GbvsursP3s8SGur5+s9//pOIb6jvfhTg31D7PjWimtopdxJK1f3BJg+cIovFekxRO2wMAQhAAAIQgECTJFDeHXATOvX2HdoVnY0mteu8zDJF5VkFq666ar5YvSFnnHlWPh8WdrYRqfbfbz8/A3nwnd9o401tnoRCLEV8qNywndLuNrpSq1at3IQJE/LFffr08T0ez/R5Nl+mhS1tSNL0zNKz2Q23YkTkVhRMAcNhpupQVltarjCqrY36rJP42Mxmtv7885GJzb74ouDyJgG0334HFM2ZsYbN2n3UkYf7WcgXXHBBH4h/1llnu1t79Ei0VYp3olJG5tRTTrORyZLHpUD2Y2xErG7dulpswyK+90WjeO1rxxe3cvc5Jb1I+qzTpl4JfYfKsfbti/8eNFjBFmWOSLaQzUyOQQACEIAABCAAgVIEmp3YWHKJZKC2wCxtQa+HH35YKUYly+XSE4+vUMXdLcj7umuvKdqm3InlJBY0opIm/wumOBAFi6fjPkoND6tzjIsNuSUdeughmUHwYR8zOtWEh2nTcKvBJDw0lGzc9Ln1fvThop6MP/8snuU7vl19ltMB+uo96d37kaJZyf+YChMH1ue4Qt327duHxXyqIHLNDVKOtWvXzo8wFeevnpqG/D2Usz/qQAACEIAABCDQvAg0OzcqDQOaNs0/0BDXoU8ygsq3tJ6JtGnei7RvfG37S7tSDRs6zL33/vuJZvV0PWu0LFVaInWO2v/LL7+S2L4xZSTENP9D2pZddtl8kWI70ta1a9cioaE6QzJGaKqNd7rdkJfASw8hrJt4DVWbtqxRoRqyz3S7deXbm1hI2/33P5guSuTjxyU3sI6pIZfffvsd9+OPU+heldgjGQhAAAIQgAAEmiuBZic25F6iSePi9tZbb7ubLcC7lOnmTL0Y6SDruWzm77R98smQdJEFeF9a1ANSVClWsMIKy/vJ3UKRnjr3Ts0GvqvNsK0bxSxLz3atOiefcmrRjXN8W8WGaCSo6TWJo5jK3UdMFYeRNarSyiuvlD9EzbKetk+GFNzSwjq5M7377rshO0Wp3LvSpuOUeIubgvbvvPOueNF0W9Ys5ml3rX4mnu+5976iY9AEk1dceZU75dTTEuu22To5R4h6lE46+ZRavwsaDUyz1GMQgAAEIAABCECgNgIzvRuVnogvuFCx33r8pBWDMH5cYYjXK2xG727dNnJx15Fzzj3PvfDiYLeVzeqtJ9e64Rr/9dd+WNW+fZ/zLkwaSUl++sHSQc0q72U37HK1WWeddbzrk0aq6te/f9ik7FRzL5x+xpn5+poZO5huLku5UKnO+uut5xSHEr8Z1E3yeut3cQf990A/kZ+CiL+289M5fmCB17rp1wzcEjFTEkMQjjErPf+CC51e5dgmm2zs5OITbAmbETttr732ujv77HP8HCL//jvZn0PPXr3S1Rqcl8DRCGGajDCYhoo97LAjnOJyFrBRpN63Hqdrr7vef19CnemZLmOxRjqWRx55NL9bDbl7wgknurvuusutuMKKfgZxDYc8fPhnPuZl+9QM4oo/eezxJxKxKc/YKGgbDt3I7bPP3n5SQLX5tcUBKXD/pcEvOQXra9hlfc8wCEAAAhCAAAQgUIrATC82Sp1YbeUSCccce4y77LLLE9U0nKpe5dpGJlh0Q6ob0GA/2OhAF150ccjmUwmYrKf3+QqpBcVtSACFnob4nA3rrLO2y/LVjzdx3rnnuAEDBjr1WASTgLrq6uJ4krC+saSdTFjccvNNicPR+a644gpOs7gHU+/Izbfc6l+hTKnqau6NuLtQfH19lrfdZtuiYPO+1nuiV9z0PVBPiFyvpreddtqpTmI0PVqWWMV5lTouicsrr7jc7bDjTglmCow/55xzS21GOQQgAAEIQAACEKiTQLYfTp2bzfwVjj/uWHf5ZZe6li1bNvhkNBKQbvTqsu6bb+4G9H/OD5FaV92wXu5e3TNmkNb6rLk1wnYh1fb9nnvWbbRRt1DU6FNNPrjTjju6Rx5+0A9hGz9guYypR6qukbI6dOjgnn7qCd+7E9++ocunnHKSW2zRRWvdXEPt3nvv3e7AAw+otd60Wqn4nQceuC/RE1Tffcm1UIHvWb119W2L+hCAAAQgAAEIQCAQaLZiQzev++23r3v9tVfcXnvt6XSTqpvdLFtl5ZXdeeedmzlCz8H/O8jd0aunH242vq1cqeTicq71MGg2bM3/sOMO28er1LmcDhTXBhopaJtttq5zW1XQE/4HH7jf9bz9NrfaaqsV3cCHRiS49txzD/foIw/5p/OhfFqn6gnQiFKbbrqJO/SQg90rL79ksTM3ujZt2mTuWjEcAwf08+cSryC3srZt27oDDtjfr1/YhmPda+8941UavCzeAwf2965K6dgIzY8hIfn8oIFuvXXXdfq8SsXRNPgAytxQrnMvDX7BHXLwwf5zzzqO+eabzx1nPXrq9coytfHiiy94Aa1Z6TWPS5aJ9dFHH+Wuv+7arNWUQQACEIAABCAAgTyBCgvSrZGLjoZwDS/N7iz/faVy49GNanMwnesXX3zhh43V/BWtW7f2fvlzzjlnWaev4WZHfjHSzW83dUssuaTTMLaNzRSUrfksJldPdpq5WueoXpCsm9PGduzx49FkeyM+G2HHXeFFnUTBtDaNmiV2E3+Z6EWS2DVWk0uV3KC++eZbJ1GkOUhat16gzp6h+PnoujBmzBhz/xvt9DegGBW9WrZsEa/GMgQgAAEIQAACEPAD9Mg1W14oeuiuVA/yERt8OSAAAQhAAAIQgAAEIACBKSKg0UCzxEazdaOaIppsDAEIQAACEIAABCAAAQjUSQCxUSciKkAAAhCAAAQgAAEIQAACDSGA2GgINbaBAAQgAAEIQAACEIAABOokgNioExEVIAABCEAAAhCAAAQgAIGGEEBsNIQa20AAAhCAAAQgAAEIQAACdRJAbNSJiAoQgAAEIAABCEAAAhCAQEMIIDYaQo1tIAABCEAAAhCAAAQgAIE6CSA26kREBQhAAAIQgAAEIAABCECgIQQQGw2hxjYQgAAEIAABCEAAAhCAQJ0EEBt1IqICBCAAAQhAAAIQgAAEINAQAoiNhlBjGwhAAAIQgAAEIAABCECgTgKIjToRUQECEIAABCAAAQhAAAIQaAgBxEZDqLENBCAAAQhAAAIQgAAEIFAnAcRGnYioAAEIQAACEIAABCAAAQg0hABioyHU2AYCEIAABCAAAQhAAAIQqJMAYqNORFSAAAQgAAEIQAACEIAABBpCALHREGpsAwEIQAACEIAABCAAAQjUSQCxUSciKkAAAhCAAAQgAAEIQAACDSGA2GgINbaBAAQgAAEIQAACEIAABOokgNioExEVIAABCEAAAhCAAAQgAIGGEEBsNIQa20AAAhCAAAQgAAEIQAACdRJAbNSJiAoQgAAEIAABCEAAAhCAQEMIIDYaQo1tIAABCEAAAhCAAAQgAIE6CSA26kREBQhAAAIQgAAEIAABCECgIQQQGw2hxjYQgAAEIAABCEAAAhCAQJ0EEBt1IqICBCAAAQhAAAIQgAAEINAQAoiNhlBjGwhAAAIQgAAEIAABCECgTgKIjToRUQECEIAABCAAAQhAAAIQaAgBxEZDqLENBCAAAQhAAAIQgAAEIFAnAcRGnYioAAEIQAACEIAABCAAAQg0hABioyHU2AYCEIAABCAAAQhAAAIQqJMAYqNORFSAAAQgAAEIQAACEIAABBpCALHREGpsAwEIQAACEIAABCAAAQjUSQCxUSciKkAAAhCAAAQgAAEIQAACDSGA2GgINbaBAAQgAAEIQAACEIAABOokgNioExEVIAABCEAAAhCAAAQgAIGGEEBsNIQa20AAAhCAAAQgAAEIQAACdRJAbNSJiAoQgAAEIAABCEAAAhCAQEMIIDYaQo1tIAABCEAAAhCAAAQgAIE6CSA26kREBQhAAAIQgAAEIAABCECgIQSqGrIR20AAAhAIBEZ8/oWrrq52iy/ewc1axSUlcCFt3gS+GDXa/fPPv659u7Zujjlmb94wOHsIzGACEyb87L77/gfXssU8buGFF5rBR9P8dj9T3BlM+Plnu2j/U69Pp/UCC7iKiop6bUNlCDQFAr///of7/Y/f63UqLVu0cLPP3rAboosvvcr9/fff7porL3YLLDB/vfZL5cZJ4IcffnS//vqbm3/++VwL+3HG6k/g6mtvcrrBOffs01ynxTvWvwG2gEATJTB58mT3408/Jc6uwlW4ueeey80111yJ8qmVee31N90DD/V2666zpjv80IOmVrO0UyaBmUJs3HBjDzf8s8/LPKWo2i03Xu3+85+567UNlSHQFAj0fW6Ae+KpPvU6lWOOOtStsfqq9dqGyk2XwBVXXe/Gjhvv1lpzdXfUEQc33RPlzCAAgelO4JtvvnOnnH525n6rrHd83nlbutVWXdl167qBa7PYopn1KJy5CMwUYqNtm8WKqP7880T37XffuznnnNO1a1u8vnIWwlGKoFHQLAjoafTSSy2RONdJ1vMwevRXvmypJZewXr/EaoR5Ekezzn0+8gsvNAThvfc+cL/99jvfj2b9jeDkITDtCKy80gr5xv/880/388Rf3Lfffuf69R/kBj0/2J160rFumWWWytdhYeYkMFOIjf3326uIrr6Ed9x1n/nDtnFnnn5S0XoKINBcCehpkF5xG//1N+7kU//PF511xkm4GMbhsJwg8OLgV3xeNwEffPixe/W1N9zmm22cqEMGAhCAwJQSqKysdCcef1RRM99886278Zbb3ahRX7qbb+3prr360qI6FMxcBHj8X+bn9ddff5VZs1Dt33//df/YC4PAzEpg0qRJ0+XQG/L3FQ7szz/r/7cZtiVNEvjrr0nujTff9n7Te+y2s18ZxEeyZulcTU2NU9yQ0nJM37G//y4/Jk+DEUzLz1zHU+6xh/PTMdXnHMJ2pBCAQDEBBXAfdOC+fsWPP01w8mSpzXSfNXlydW1V6rVOMYj1vQZoB9qmIb9l2q4+18yG7KNeAKZB5ZmiZ6Mh533VNTe6MWPHue222dJ13XD9zCbkk3zl1Te4WUxdn2NBfP+Ze253W8+73KdDh7vzzj7dPvzf3X0PPOJGfjHK/fLLr26++Vp595S999zNtWzZIrNN/eg89Uxf98477/v929fPj3ywztprum233sJJyWMQaKwExo//2g1++TX3oT3R1sgduujONZe5KtqIOjvtsI3rvMzS9Tp0/f288+77vgfyiMMPToxWpb/Phx953GnUnonWda4Yq8U7dnB77r6za5PhOqm/zaHDPnMXnneWBS//6h565DGnkbB+sh8jBbe3s17O3XbegS73en1CycoSGhIca6+1hltssUX856DPSdfA2oKc9WP5rMUKvfXWu27c+PG+Dfley996qy03c7r+xU09bY88+oS59n3pfvjxJ/8jPc88/3ErLL+s22+fPX2gqOrLr1uDfejpp76bTz7d1383f7Nr8y47be+223ZLf20++7yLffOXX3Ke037T9tHHQ3xPeLu2bdxxxxyeXu3U3oMWPDrMvl9yz5111lmd3He32bq7W321VYrqh4LX33jL3D2ed1+NGWs3O/8as0V9/R2229rNNttsUbXyNFdokhQCEDACCy3YOs/hjz/+8HEcoUADBul35eVX33BjvhprrlcTfW+97tHWXWctt81W3c3Ffo5Qvc70F/s9edXaetOuX+pV0fVA14CFFlrQdbde3S4brFt07xa/Nun6oljJkV+MdjpW/ZYt23kZt8duO7nWrRfI3H99r5n1/b3M3OkMLCy+Ks/Ag5mau15+uc7uvfc/dAOff7Gk2JB7wPd2Q7Xiist7oaH966ZHZS8Mftk927e/tIL94C7qFl5oITf6y6/c62+8bT9II9zJJx3jf4zix6wv2TXX3ezFir5s+uHUF0o3RI/2ftL/SJ5+2omJG6749ixDYEYTuPW2O/2NZYt55vE3l7PNNqsb8ukwfxN20SVXeZfFdDxIqWN+2G4mdQHWU6oD9ts78b3X35HEg8RMhw7t3DJLL+m+tou8LtpDTewfesh/LTh5tUTT+tv8zm4En3/xJdenTz/fa9jGbogVTPiFXeRHjBjpLrj4Cnf6Kce7ZZddJrEtmfIIDH4pcqFab921/Abrr7e2vwkfPPjVkmJDMR1XX3tjfhCP+e0Hf5GFF/YPW3TNnDTp78TOXzIxe+fd9/vPXjfkHdq38zcLGrlJA4FI3Ab7/vsffcyIRq655PJrvLDUQyHdVCyYuxnRAx5ds2Wl7uvVW6E6WYOGSCjo4ZRG4NKNgcSFHi4pdkXX8y0238Ttteeu4ZDy6UMPP+ae7vOcz+s7vugiC/vv5+NPPOPdPxgGOo+KBQjUm8DoL8f4bTQ6VfhbD43ogfCNN9/uZrHY3EUWWcQtscTi7quvxvgHBU89/ax/gKVYj3JN93rP2G+KhqhebNFF3TKt5vW/eWPtQcvtve7294V6sBE3XZu+++4HN2DgC+6e+x7yo/Z17NDeHtJ97681b739rvvUfjuvuOyCoutOfa+ZDfm9jB9rY1husmLD/0jaj4GCYvVjoidacZMIeO31t3zRhqZa06YnruoR2W+fPbzC1Xrd7Fx5zQ3+xkZPbNNf5sef7OOFxrKdl3bHHHVY/umctrv8quu86Hj22f7+aVx6f+Qh0BgI7Lbrjq7ahiVczsR6GDr6Dwvau+XWXl68937sSXf6qSfUeai6CdNFX0PhnnbKcYmeQP096AKup1PHHn1Y4snxCy++7HrecY/djN5nYr1z5jCIDzz4qB++8MD998nPX6AL/H33P+LetYDmB63HQz2TWP0IjBv3tb9Gqdd2xRWW9xtLdOim+jV7gr/XnrtkDo/c+/GnvEhY2J4CHmOfZxjQQ64NX5rYaLNYYQAPiQbF2snFVD/eO+2wbf6JoXqo9CMcvnfh6HXjf+ll1/gnlWedcbJb0m4splYPsX4Hbrv9Li80ttxiU7f7rjvl25a/+MWXXeX69hvoVreR2uIie5T1yOg7ruM4YL+9EjFSQ4cNd9fdcKsfOjicAykEIFA+Af0N9ex1j39ApZ7udG/liiss5/bZe3e3to2WF/cykQi56JIr3SeffOqGDR/hH2KVs9eNN+rqRYZG39MDNpmG55UAeaT3E350xy2thzb9AEG/YXff+6Dbc49dfA9IuHbpQcUtPe7wvSS6TqiHI271uWZO6e9lfL8zcrnJ+vRIDYcno3qSljY9QfvRuu/1lGxVG2Itba3mndftv++eeaGh9fpSH2HjM+sLpS+zXAuC6Ud0oClc2Y72A6rxooNpu733iJ6MPd2nr58ALawjhUBjIiChvLz1yIWLpo5tLhvxTeJdJtfDumzgoBf9Daq+96edfJybf775Eps8/uQz9rR7krlkLZUQGqqkwHa5ammOh0EvvJTYLmTU63LQgfvlhYbKF2zd2rtfafkr61bXTSRWPwIvWm+uTAJDTwxlug6ql1g+wnIxSJtGjXn+hcG++OgjD80LDRXoh3mJTosnPqfejz3lReZqq67k3aDiokG9FXKFS5s+y9+t1/ik44/2N/zxbdJ165t/6+33nITDHHPMkRA+aqdjx/auu/VqyJ404Ry3J5+K8vqNSQ/GoO/v1ubGgUEAArUTUK/kSTZwSXgde8Jp7oCDjnAXXnylW8pGVLz80vMzPVP0+7T5phslhIb2pN+vMFRuOb9V4eha20OxDdZfJy80VD7LLLP4v23tS6Lie+tVzzINpKHez/hvpq57W2+5ua8eRoEM29b3mjmlv5dhvzM6bbJiQ2A36rah5yt3KanUuKlMto5N8JJWqyrXj2FaTatcPnz6QsvkthFsyJBh3q1D6+USkrYll+zkn4LJH/qHH39MryYPgUZNQP6nMj1lLhWIV1FZYW6Gb7m77nnAi3gJDf09pE0jHMlKxVItvfQSfv24EsJGbi7h6ZOvmHtTV7v+ZvXU/KcJE+KrWK6DgJi9krsmbrB+sqc35LMCxfX0UN8H9TZkCYX0bocMGeqL9CSxPtZtww2myYSRH3z4kT+MtddaPbPXZpmlomv5OHOniNtn9rBKtmGX7HjA9deNxHl8G5YhAIFiAnroG14T7LqtG3uZbtJfeuW1eg+8EO7Pfja3zCk1TWiqOCzZhBJB6pokMMsWXXRhX/z9D5GLZ6hT32vmlP5ehv3O6LTJulEJrH4A1aWvwJr3P/go/xRVP6zyp5Mp8CfL5p9//qxiX7bQggt6P3YFNgb79rvv/KLaVtB5lumJnJS8JrTRk1gMAo2RgHzXP/pkiLmWRD8CikX6s4zR2OSG08NiPvQk+sjD/5cZ5K2/D/2wyNTjKF/UtH1v+5fp7yTL5pu/VVaxf7KkoD7tY/K/yYcLmRtQmCfw7nsf+t4kub2p10luAMEUE6Oejs9GfO4U2K3YhGAKppYpZqEuk1vVT7kbgHLqx9uTT/a0sG+/jY5fNzZZ1+3wvddx6yZI3y/FGSmgVCbXsSzTTUoQvlnrKYMABJx/ANvrtsL9kn475Er5ucW5PvF0H/fY40/7QSfOtQF8NAhI3HQvpRg/PZTSvZhivvS3GR5S1ZSM4Iq3UljWCHe6T1RcoB4I68Ga2tPvoaxUb/l8qZ770GIYIEK/R3GrzzVzavxexvc9I5ebtNgQ2I26dfFPWge/9GpebEgpapgxCREF9GRZPEgxvV4/JLL4cGy6MZPJ7zhe7gtjb+qaC8o9VswiBGY4AY3AIbGgC64urLpYyrVFbktVVbPEji/bRemWHr3yQz1rYAa5Y6VNfx/hoq2RpUqZ/k7SvZGhro4Hm7oEQmC4fljPOe+Sko3rOhr3Pw7Ccd6WLUtuE1ZMiH3285qLXX2s1E19fdrIqht6mceMHesfSmXV0XdRFsSGbmqCxf3FQ5lSuVTod0LfdwwCECiPgP5uNCrdKqus6Dp3Xsqdftb53nVXcVPbb7tVvpFXbOQojUaov8Xwt9bKgrrnnGNOV2EPdWX2E1aW6fdII9ENfH6wf9CiByutWrXyLlpzzD5HoY0SDbaw462P1eeaOTV+L+tzbNOybpMXG+uZr/kD9kX66ONPvFLVD8Crr73pmZbq1dBK+YyXsvBUK4gO1WvZMroB2tjETdYkhKXaohwCjYGAnhJdfuV1buTIUU4ufwqUjQfESpwfcngY3aMi85Dl937EYf9z1994qw1L+IEPrJUva9zifzPXX3OZvyGLry9nOe4bW0596tROQD9+H1sMmtxJV7DAyyxTzIaCL1959XW3687be39m1Qs/tBKqddk8MZGo+ooHKdvsJmRKTE9LvaVuQFq2aOEFweEWi6fg0HJMN0PB/vjjT7v2RwGloSykeiqKQQACDSOg3xON6KkJnOMu6xpl9Nbb7rBekQqL09vFe6fER5m7574H/XDU5V4yJDT62GhUenBwyP/2N6GzUsK1/vQzz/ODDJmqyTyRIG4yV2YU1ueaOTV+LzMOYYYUNXmxoeBW+ePKZePNt97xX8wPP/rE/1iuV4tf7YSfC0+v0p+M5h+QKagoWHALGDf+m1BECoGZhoCfS8GEhlw/TjrhaB8UHj/45N9D6o4tV/H4Y4/wwXmH/O8AP5SoLuJyZVSwXDD9gMgtR71/mjchfjENdUinL4HBL7/qe5tWs1gYub9lmeIyjj7uZD8iX9wlNQxJqSEg6zKNe68bdT3IUf16iY1aGo8HjE82l4WsGLx4b0S8KV23FSA+zr6L5ZoGH5nTflf+tFHa1DOS1buhXpC8wCm3YepBAAIJAqEXPN7Lrd5VlW/ZfXOnEeTSNmFCNAFgiY6IRHW188LgV3yZfrc0ylXa8r995TSY3jgjX59rZlP6vWzSAeLhc5YrlexNi9OQ0NATJ40gUNuNznvmw5wVCKungBo7WdaxYwd7j2zJJTr57rzhn40oa8SesB0pBBoDAd34yyQEJNDTpqC2umyOnE/tKiuv6Lbovol3g7r+xh5+gqT4tkstuYTPDsqNYhRfx/L0JaAfW/14yzbssl7Jncu1oMv6UXxbPFBcIzbJNFRlmOuiZCO2IritvmQCZ2qZBIxiKWThQVC6bT0NzbKlrBdP9rI9jKqPe2v79m39dm9kxBxphXqKMAhAoOEE9PcY7rXa26SywcKDgUVisWNhneLCRsbizUJ5qVTDyiomUZbVnuIQa/NyKdVubeX1vWY2ld/LZiE29GRV82yoKy4EpNbmQqUvitTso72fyPuXq0wiRXMAyOVEribxUacU/6Efa63TnAQa3ixtckUZXsZNW3o78hCY1gTCLKfy2deM3nHTULKPPPp4vKjO5d122dF16tTRB4Pr7yE8odKGu+2yg3/6rL9FTfoXXxcaDrOKhzzptCGgm2I9QJl//vn8ELe17WVDm3dIpqDM0FOga6se3Oi6J9eG9A+zrqMKuAy2807b+Ycy8rl+7fXInTWsUzCk3Pjqa3KrW2zRRfxmmuwx7b4kFwlNLphlehClgHcNSqBJJhUkmjaJKPX8xU0zFMs0+WtaiMvPWhNaYhCAQMMI6OGXHlR9Y/dR6qmMe6EsmJuROwzyE/ag68e9Nrnej/WIk1KvZAjkfss8X+Imd/kePe+MF02V5fpeM5vK72WTd6MK3w6Nha4hOd9+5z3fo6EfyNpMT2efebafe9+CyZewmyaZhm3Uj5K60OUrmLZd7SZKN0n6YTvN/PzkQqKhPyfZcLeah0MziWtugVNtSFAMAo2JQMcOHfxTZ7mUaKbwlVZc3i1kQ8nqKZLcZjbeaEP3kfUKhpE06jp2BdUeefjB7gwL8NOADLrhC+OO629CkyDde/9DTpNjyie3gw3UoEEZ9KRJfz+6Af6/M0/OdFGpa9+sL5/A4JciFwI9fKkrFkZB2nrAoptruaWGGXX3ttm1v7TZe1V+0ilneZGp7n+NaKXPUYGdEhmyxTt28L1ez/Yd4G66pafrY5OctrEHNbqh13dPTzPvvuMWP0qN36DMN00OqAlXXzUB8857H7hVze969tln8zN5fzVmrB9mOd4jE5rV9/R//93PXXXtjX6S108+GeqPX7Og//rbb35We4ntXXbaPjGHiP4+tA/1mFxy2dVeqC1iLlkaFWfIp0P9cJkaCljbYhCAQDYBPaQ49fRz8isnW14utnJRlMmt94D9904Mq60HBHrgod8VxVOsuOJy1jvxpx8h9O9Jf7utttjM/97kG61lQde8bl3X9zEeD9sDNbWrke903Xrv/9m7C3gpqreB4w+SIikhEtKptAgGghK2tKioiH8FREAQsBFsfRVbwQAUE6QxEDAREBWU7pIQkJYO73uec5lld3b33t3L7mXjdz6fy+70zHeG2Xnm1B/zbbHgeqZDT31ujGQK556ZKL+XSRNsOBXF9a3XxRdqp1Xerev4X0basZU+YH30yShbzEDfvmpRAs3R6Gx+nAJluWkrOU8OfMT2Nqk/bItMcSv9c5IWIQjWJrMzD58InAoBvbZ79uhqe3fWoELrN2nSNz8dzMOkdqCkb65DDTZ0Wa3T1PnOjvLKa4NtzogWNXQqnTdrepn9v/Sh6X119Zp19g2WLqNJy8TrmywntyV1LP9GWkBzIbTJW/3BvbRh8CJU3tttbPq70KBC63lcf91Vdlmt9/Dc0wNFK2bqw7cWVdWUK1dOqWJerpQrV8YOO//oi5rKpv8K7ZlcAwENVDTpj6oGI+kFPXZm1z/aes3dXe6QUZ+Ps282tb8XXY/ep3t272KC5+qe4mKuRe11+Pwzj5v9H2n3XYNrJ+nvRA0TWGjLOO7U+95uMnb8JJlqOnPVBx/902tX+4HRXsW1p3uCDbcawwj4Crg739PnqOLlytr7hr6g0lxX76T/v7QRHs1t1/uH/mlQoi+FtaEHDVj05VaoqX27NnZW7YzWeWbTlyX1L6hrtzNr1q8RDzbCvWcmwu9llq1bt6ZodKkVcJw/zY7SN0z6qQ/ndevWDfW8xex8hw8fke739rUR8LNPD/B5S+W90y++9Lr90bjzjts8nY7t14qAJkdD31w5ZYO9lwn2XcsC6sPZ6ebCzWce2gKVhQ+2LOMROFUCet1q2Xen2dto74cG8vr/RFs80taB8pk/DX5I8Smgubiam6sP+ukFDnpf3rxli+1l/owzckfkgLV9fO3UUXNi9KEh3KRFv3aZSqbawk1+06RvoA4k3evUN6FaXlxzA9M7ZveyDCOAQPgC+tyqz2WHzbOqPpul9wI5vS3oM68Wf89p7hmFTYCTmf+Pw7lnxvrv5Zw5c2zRNA0A9XlZP/XcJE3Ohr6p1aw2rZyj9SvSS97lyDVI0Dof4SZ9y+VUiAx3WeZH4FQJ6HVbpvQ5mbZ5valHqx+FTDsINuQRKBSkkyvPDF5f9EE+I/dWr1X4fdWGP9Jq/MNvAdcIbSUr3Jay3G9fXatkEAEEIiygrdA5LTtFYtX6YKxFOk9FCueeGa+/l0nx+lDf1Gr2uqarr2x+Kq4ltokAAggggAACCCCAQNIJJGzOhhbJ0FYGtFL2hElf2dalNEdD+9wgIYAAAggggAACCCCAQPQFEjbYeOX1Ibb1KKc4lFZ07d2rW6aWw4v+6WMLCCCAAAIIIIAAAgjErkDCBhvaNGE2UylFK6ZovYnmzS6zLYWkdyq0vXZtdi1Qr7DpLct0BBBAAAEEEEAAAQQQOCGQNK1RnThkviGAAAIIIIAAAggggEAkBYK1RpUUFcQjCcm6EEAAAQQQQAABBBBAIDQBgo3QnJgLAQQQQAABBBBAAAEEwhQg2AgTjNkRQAABBBBAAAEEEEAgNAGCjdCcmAsBBBBAAAEEEEAAAQTCFCDYCBOM2RFAAAEEEEAAAQQQQCA0AYKN0JyYCwEEEEAAAQQQQAABBMIUINgIE4zZEUAAAQQQQAABBBBAIDQBgo3QnJgLAQQQQAABBBBAAAEEwhSIix7E161bF+ZhMTsCCCCAAAIIIIAAAskjULp06Zg8WHI2YvK0sFMIIIAAAggggAACCMS/QFzkbMRqpBb/p58jQAABBBBAAAEEEEAgegLkbETPljUjgAACCCCAAAIIIJDUAgQbSX36OXgEEEAAAQQQQAABBKInQLARPVvWjAACCCCAAAIIIIBAUgsQbCT16efgEUAAAQQQQAABBBCIngDBRvRsWTMCCCCAAAIIIIAAAkktQLCR1Kefg0cAAQQQQAABBBBAIHoCBBvRs2XNCCCAAAIIIIAAAggktQDBRlKffg4eAQQQQAABBBBAAIHoCRBsRM+WNSOAAAIIIIAAAgggkNQCBBtJffo5eAQQQAABBBBAAAEEoidAsBE9W9aMAAIIIIAAAggggEBSCxBsJPXp5+ARQAABBBBAAAEEEIieAMFG9GxZMwIIIIAAAggggAACSS1AsJHUp5+DRwABBBBAAAEEEEAgegIEG9GzZc0IIIAAAggggAACCCS1AMFGUp9+Dh4BBBBAAAEEEEAAgegJZIveqiO35r/++ktSUlLkrLPOkly5cqW74g0bN8qxo0elcOHCcsYZZ6Q7fyzPMP3nn2XSpC+kZ88eUrJEiVjeVfYthgW2b98uv/76mxQoUEDq1q0jOXLkiOG9ZddOtcCWLVvk4MGDUqpUKTnttLTfSa1fv16WLF0qhw4ekvLly0mFihUlR/bsGT6ETZv+lkWLF0lOc43WrFlL8ufPl+66du/eI4sWLZI9e3ZLjRo1pXjxs9NdhhkQQCC5BLZu3SoHDhwIetDpPTOuWbNG5s2fL5XMPa5q1aqSJUuWoOsKZ8KGDRvk77//lnz58knlypWDLhrP97m4CDbu7tZdfvvtN3nooQeld697g54InaA/VHXr1rPByU8/fi9VqlRJc/5Yn/jMM8/JnDlzpGiRItK3b59Y3132L8YENm/eLLfe1lHmzZvv2TN9iLvjjk7y+OMDPeP4goAK6Eudl15+RV544UX577//ZMnihVKoUKGAODNmzpSnnnrG3p+8ZyhRvLg8+eQTcu2113iPTve7vlS6p3sPmT37V8+8+mPeulUrGTToBcmdO7dnvPNl//798thjA2TEhx85o+xnjRrVZdjQ9+Scc87xGc8AAggkr8Cdd3WWX36ZHRTg1VdelptuutFvut7runbtJvoSxkkFCuSX559/Tlq1bOmMytDnnj175NrrrrfPrpdccrGMHTPabz2JcJ+Li2CjbZvWNtgYO2ZsusHG+PHj7Q9mtWrV4iLQeOutwfLb77/L8GFD/S4wHXHlFc1Fo96LL7444HRGIhBM4J9//pHWbdrKypWrpIp5W9LcXEuawzF58jcyeMjbcsTk/j3z9FPBFmd8kgnoW7N7uneXKVOmpnvkH3/yidx3X1/PvbZ+/QukWLFiMn36dPn55xnyvzvvktGjR0nDSy5Jd106g16rTZo2l927d8t5550nzZs1lX379ss3U6bImLFjbc7J5K+/9MnZ1sCobbv28ru5f2qud8sWLSRv3jzyw48/2XFNmzWXCePH2TeQIe0EMyGAQEIL7Nixwx5fpUoVJXt2/9z9gmcW9Dt+LRHQocOtog/8ej+78MIGstDkon477VvpZl6En5blNGnR4nq/5UId8cij/W2gEWz+hLnPmWylFPP2M2Xjxo0p5s1SiskmSlmxYkXK4sWLU+bPn59ibuTmWE9tMg9IKcVLlEopUrRYysKFC9PcmcubNLXzvf76G2nOFysTL76kYUrDSxvHyu6wHwkkYN742v8LzZtfmXLo0CHPkS1fviKlbLkKdtqff87zjOdL8grofbXeBQ3sNWHe/qVUqXqu/b5t27aAKCY4SDEP8ymjx4z1m963bz+7bJOmzfymBRtxb6/edpmOt3dKOXLkiGe2vXv3prRo2cpOMwGyZ7x+GTXqczv+/Hr1U9z7OWDAQDvt1ls7+izDAAIIJK+Ac1/TZ8pQk97H9Nnz4Uce9Vlk9OgxdnylSlVSDh0+7DMt1IHJ33xj19HhllvtZ6vWbfwWjbf7nMYMGjtoDKGxhMYUGlukXRg3WKiVyePPPPNMueyyxnarY8aOC7p1fYO7YMFCW8a4devWQec7duyYLY8cdIYgE8yPoPz7779BpvqODmUbq1atFvPg57vgSQxp5K3bzUgyV7iYH/aMLMoyMSig53PCxIl2z55++kmfOhoVK1Ywb2TuttNGff55DO49u5SZAocPH5abO9wia9eulbu7dpG3hww295Gjae6Clm2eOuUbadO6ld98Xbp0seOWLFkqh809M72k1+rY4/f1gQMek2zZTmS4a527lwYNsvd08wJJTNDsWd3oMWPs9169evoV9erf/1Fb38T8mNvfBM9CfEEAgaQU0GKhO3futPeXggX9czACoaxevUbmz18gefLkkQHm3uSd2pgSN1rsaeeuXTJt6jTvSSF91+X69Oln62nc0uHmoMskyn0uLoINPQt6YjWNH5daTMoOuP4Za7LbNWk2l3cFQf0x+3nGDFse2Ly9k3NKl7V/555Xw5bD0x/ZYEnL0z3w4ENy6aWNpUzZ8lK+QiX72e6GG33KwYezDf1xf+655+Xqq1PLNK9atUrM2znPn/6oOqlX7/vs+HGmeFigtGLFSrm90x1Sx9RTMW+r7d8VV1wlWjxL/3MFSg0bNrIPFzrtu+++lxva3ySVKleVcuUrSuUq1WwRCC0/TYpfAa3no/WX8ubNK7Vr1/Y7kMsaN7Lj9CFPr11S8gpoYwH6QP/6a6/aejxaIfzQocMZBtFARJO+nNkXwgsMk6tuX/5oGegyZcrYZb3/KVeurNSpU8cWtVq6dJlnkr5c0lS7Vi3POOdL1qxZpfXxQEgb2SAhgEByC2gRTX0mKlKkcMgVuydNmmTRGjSoH7DRi8aNUn9HnYAgHOGHHnxYtML6wIGPBayP5qwrUe5zcRNsXHnFFbZlKW1pSsvQBUpjTSCiyQlMnHm0LPJNN3WQzz8fbR+sGjW61FQir2t/vMaOGydXX3OdjU6d+Z1PU8REGjW6TIYPf19WrFwpZcuWES3rp60Z/PjjjyYizevMasoah74NDWCmm3LNhc1Fr0nf5GmZY+dPo2gn6cWoD/579+5zRnk+R44cZco5N5Ovvvra/rA3Mhd+hQoVTEsui2Xg409Im7btAh7XX6b1mOnTf5Zhw4aLyb6TJUuWSM0aNWxlSo38tfWrZs2usG8BPBvjS1wJ6BsZTTVr1hB98HKnWuYBTa87rcOh55yU3AJNmlwu7dvf4EHIaA6prmD1mtV2PZojHcobRL3HaSpUKPV+aAdc/5QtW8aO8X4JcmK5wBXYyx4PXLyXsSvhHwQQSDqBbdu222MuYhrbCTWtNq1PadKXHYHS+eefb0evNC99w0lffvmV6LOn3ndv6dBBDnrl2LrXkyj3uRP51e4jjLHh008/Xa655mox5ddshUGtkOidNDBYvXq1bS7xumuv855kmvvMLy+/NMhUPDzXp9K4Vry+/vqWogHM0KHDpG+f+zzLaQRsyhHLxk2bpGnTJvLmm29IQdNsqCYNLJaaph7Lli3rmT+cbeibvy+/mChTp02zFY/0bZ4Oh5N0n/v2u98GGdqqkBZ/cJL+uN7e6X8yY8ZMm4Py/HPPOpM8n1oc4aGHH7FvMrt0vssT6esb8e497hXNbXnN5LAMeKy/Zxm+xI/A9uMV4bSp20BJAxDN9dBAQyvn6oMhCQFH4GRyu8aNTX3p08xU8g4llS5d2s62ydxrdbvaApU7abOQmrwDhzJmuWXLl4vmjOiLGnfaFGAZ9zwMI4BAcgg4lcP1HvPhRx/LDvOiLbtpotvJOS1atKgfxI7tqRXKnWc/9wxnHq9QvtX8hoaa9AWfPrvlz5/f5ijrcseOBi/+nij3ubjJ2dAT0rZNG/2QiRMnyVHTko53copQNTU/cIHaZW/bto1PoKHLlixZ0rbQo9+XLTuRPa/Dmguib/z1Anx/+DBPoKHTdP3uYEfHh7sNXSajSYthacDQ4vrrfQINXZ829/juO2/bcs4jRnwoWtQqUNKHga5dOvv8uGuOT/fu3ezsC0xZRVJ8CugNTZMGFMGStumtKZwbZbB1MT4xBQI9+Kd1pOvWrZMPRoyw956ePXqkNatnmjate/bZxWyO8fgJEzzjnS9aBHbmzFl2UMs5O6l69fPs108//cwZ5fk0FcZtzq2O2LnzxDKeGfiCAAJJJeAEG1qvt0+fvvL0M8/aEiC3dewkdc+/QJ586mmfOmGKsy2d39G8x39D9aWd+5k0GG6/+x+wJQq0JUi972lK6+VOotzn4irYaNjwEvvwrxfNj6Z5QydpLsT4Cak5A+3atnVGh/R5yfEmZbU/Au/0k2nCUZO2uXyyHaAF24b39sL9/vPxcsi33nZLwEW1c61LL73UVhjX5igDJadMs3taxQoV7ah11Ntw08TNsFPZX3MEgyVn2h6TU0dC4GQF9OXHHf+709a/uK93L9GGCEJNjzz8sJ1Vm9N9772hsnzFClsxU/v80GYnzzor9a2jdyetffv2tfdm7WPj0UcfE83d1vLNn302UrTZ2xw5UjsWzBPnHbuGash8CCAQXEBfrmpjKf0ffUSGDHnLvkTWYR2v9y6tK9u/v28lcKfOmfNb6V577uO/rxos/BtC/TSte/vFF1/KVVddJe3a+T+rZhH/XN1Euc/FTTEqPcla9EM7UHn7nXdsUSot76Zp5qxZosGCZktpkadgae4ff9gOqDas3yCaxa4PZH//nRpkuCPLtWvX2dWUL1cu2OoCjg9nGwFXEMJI7dnX2e9AFSqdVWj24A8//CCrTPGyQKlE8RKBRovzH+vIkYxXEg24YkZmmkCh48Wi9u3zr+vj7IQTkOQ3xQxJCJyMgL7w6XZPd9vyk7ZF38erSGoo69UfXi0Gq0U3TROTnkU0Z+Vh05nrTz9Nt/e8/MffJOoMen8bMvgt6dO3n7zz7rv2z1mwefNmUt301zHopZclXwg9kDvL8YkAAokpoHUU77rzTr+D03H6gqLnvb3k/Q9GyI3mBXOd442qnFkotXhxsN9R5zdU71P50ihFoBvVuhcPPvCQLbL84gvP++1HsBGJcp+Lq2BDT4ZW/tZg4+uvJ9s3aLly5RKnjPB1114bMBdCe0++r08fTxOIGpQUN73canEobXlFkwlMfdLGjRvscKByfD4zHh/IyDYCrSeUcdqLpRMcFTne8kug5ZyKUFqmOVAK1jNwoHkZF18Czrnfs+ffoDvuNONcOEgP0UEXZAICLgGt/6UNS1SpUsUUXxoasFEC1yI+g/pj/eCDD5iiqG1l1i+/yCrTIEcB0zyldmqq6/zkeFEpd26J9lKurQ9qR35ajy6ruZ83aNDANOxxqW1WUjdS0TSaQUIAAQSCCdx4Y3sZNny4zR39/fc5nmDD8zsapMsDbexHk9aNDNQQi/f2+va93zbYo0XcnfV6T0/reyLc5+Iu2KhVq6Zpcam8zS7/8aefpGmTJvLlV1/Z86R1JtxpvWl5qf2NN4kWvbr55ptEyxFrpOgkbclJm441v3U+SR/EtelQ7zLCPjN4DWR0G16rCOtriRIlbE+6msOx3VRg8m7m13tFThnFQJUndT4n0PJehnN649YAAEAASURBVO+JIeDczLTseqCkzS87wQaVwwMJMS5UgRdeeNG22Kd14EZ+9mnAOnOhrkvv7frnnfQerI15aDr33HO9J9nveq8O1N/HgoWpdc60R3ISAgggkJaA3ltSi2KeqOPq+R39J/DvqNPCVaHjOSDB1q8vo7XPHw1ItFsC/fNOu0yzvJr++PNP0a4LNA0a9KJt1MgOmH/i/T4Xd8GGwrcxFcWff/7/bHfx2kysPlSXMDkV+obLnb4yOSA6XSs+v/LyS+7JtviVjnTnbJQpU8bmhGiFx/RSRreR3nqDTdfsQP0BNT012tZZggUbzr6XC7MoWLDtMj5+BJxKZfPnzbPlUXPmzOmz87Nnz7ZtjmvOndMvgs8MDCAQgoA2n/3Ci4Psm7rRn4/yVHgMYdGQZxkzeoxtdU+bmQw1MNbGPfQHXouENmzYMORtMSMCCCSnwI4dqU3AlzIvTZykRTE1zf51tjPK53OWKcKvKdBLEO8ZDx9O7YxUmxTXgCJY0mJZzvRgRbe8l42n+1xqGSLvvY+D785brGnffmc7pdNdbmU6cArUcsoK0zSiJvfbMjvS/KP1PQIl7XdCk/ZloeWR00oZ3YYWAdOkZfnS24Z7+7Vr17KjPvn0U/ckO6x1On744Uf7vV691LagA87IyIQU0BbJLrignhwyORjap4o7TT3e42mLFteTw+XGYTgkAa3sqMWntNnvz0d95pNjHNIKQphJczWGmoBGU6fbO4awhNh7qVYs19SqVcuTymkJaYPMhAACcS2wf/9+mTt3rj2GylUqe45Fiy/pc9qcOXNl167U3AdnohZln/btt3ZQ6xKnlapXry4zZ/wc9E9bptJU1/Tn4cynfWSllfSZMZ7uc3EZbGiug77l0qx1DQY0tQtQhErH60OXpinfTPFr1kz77NBmdAOl//3vDtvy1RrTqcujpoUC706u9CLT1lKcYkoZ3Ubp4/umzZT+9tvvgXYj6Lg7OnWyHWaNGTPWtMTl21ykliPs1bu3aFGZ66671lP+MOjKmJCQAje0a2eP6/4HHvQpDqjNiL43dJid1to8jJEQCFfg++9/ME1k97Q5B59+8rFUq1YtpFVo85I1a9W2Lb+kt4AWY21h+kHSPn8uuuhCadmyRXqL2Htel653ywTTOqEWgejXr2+6yzADAggkvoA+7zmlPbyPVp+XevfuI1oXtmrVqnJZ48aeydp0/FVXXmnvKz173uupK6szvPLqa7bFPG1C3t0wkfs+pwGLU0Q00KfWIdaUO3duz3zOy2g7wfWPPtvF230uLotRqXtbU1FcixFproBeIPoXKLU28+lFoW/ILqjfwJSHu0JymSIlc+b+YbLZ59lm0PTCcCdtYvHZZ562LaxoU4yTJ39jepGsLZq1pR3faZQ7ZvQom0Wf0W1okFKvXj0TaPwm7W5obzoYvE60sm5xUyej8113unfJZ1ibtv3oww9ML+E3SOfOXW2nhFq0aqfJCnRa59JOBx8fOMBnOQaSR6BDh5tNT/U/2wevunXribYStH3HdvuWRoPn+82DmBYvJCEQrsADDz5kizbp27V2N9wYdPFq1arKF5NSmyXXlzRDhrxtl3v7nXelR4/uPst17tLVNtyhbdb/Ye7P+kJH11+5UiUZNvQ92wGXzwJmQIvT7jGVN3U+LW+9cOFC+1JJGwF5f/hQW7zWvQzDCCCQfAKaE9u9R0/bJLc+L+bLm082b9ksc0yFcH0+1MDitVdf8bvPaPO4ixYvsnUuatWuY/pYqy+LFy+W5ctX2E6k33v3HZ+GidK7z2VEPhHuc3EbbOhbLs1x0I5UguVq6EktaR7cP/pwhPS7/37bud37739gi1tpPYZRIz+zb8yGm3GBkuYKVKpcSe43nbDMNdloTi6IvjHTphWLH2869mS28cbrr9oeuzXg0MhbU8fbbg20O37jNFD5+KMR8tRTz8js2b/aP51JyzXfboocDBzwmI2U/RZkRFIIaGW0wW+9aetkaNveX0+ebI9b36x0uPlmueee1M4bkwKDg4yogJPTq59O84+BNrB//wHPaC3mqk2JLzUdqLpbldKZpkyZKlqcQZM2XqEvY/SlS8eOt/k9ANiZzD/zFywQp0igjtN7s/429DVN7xY0rVmREEAAARVo3/4GU0d3iyxatMino2MtBqov5h55+KGA9Re1TuPYMaNNi6Z9beei48dPsPcjbR73/vv7SePGjXyA07vP+cwc4kAi3OeymJyBFH0rpD8azp8+wB85csQ+yGt2TaK8/dRssn9MqwJly5YR786hQjnfarN69Ro5PffpNoAJtkxGt6GtBm3YsNG0OHCmlCpVKtjqg47Xolha7EA7vwq1ud6gK2NCQgpokUDN8qXJ44Q8vXFxUFr09HeTM9zAvB10erB3dlz7StL+j84wRQk0VzaUzlR3mw4pnaIRZcuWsW8nnfXxiQACCLgFtBVGbUFU6zNqUfZQG53Q9ehz4ErTLLe+CHH6I3OvX4fTus8Fmj+9cfF0n9OSP3rv1oaMsmfPbj/1xWdSBRvpnVCmI4AAAggggAACCCCAQPgCwYKNuKwgHv7hswQCCCCAAAIIIIAAAghktgDBRmaLsz0EEEAAAQQQQAABBJJEgGAjSU40h4kAAggggAACCCCAQGYLEGxktjjbQwABBBBAAAEEEEAgSQQINpLkRHOYCCCAAAIIIIAAAghktgDBRmaLsz0EEEAAAQQQQAABBJJEgGAjSU40h4kAAggggAACCCCAQGYLEGxktjjbQwABBBBAAAEEEEAgSQQINpLkRHOYCCCAAAIIIIAAAghktgDBRmaLsz0EEEAAAQQQQAABBJJEgGAjSU40h4kAAggggAACCCCAQGYLEGxktjjbQwABBBBAAAEEEEAgSQQINpLkRHOYCCCAAAIIIIAAAghktgDBRmaLsz0EEEAAAQQQQAABBJJEgGAjSU40h4kAAggggAACCCCAQGYLZMvsDWZke+vWrcvIYiyDAAIIIIAAAggggEBSCJQuXTomj5OcjZg8LewUAggggAACCCCAAALxLxAXORuxGqnF/+nnCBBAAAEEEEAAAQQQiJ4AORvRs2XNCCCAAAIIIIAAAggktQDBRlKffg4eAQQQQAABBBBAAIHoCRBsRM+WNSOAAAIIIIAAAgggkNQCBBtJffo5eAQQQAABBBBAAAEEoidAsBE9W9aMAAIIIIAAAggggEBSCxBsJPXp5+ARQAABBBBAAAEEEIieAMFG9GxZMwIIIIAAAggggAACSS1AsJHUp5+DRwABBBBAAAEEEEAgegIEG9GzZc0IIIAAAggggAACCCS1AMFGUp9+Dh4BBBBAAAEEEEAAgegJEGxEz5Y1I4AAAggggAACCCCQ1AIEG0l9+jl4BBBAAAEEEEAAAQSiJ0CwET1b1owAAggggAACCCCAQFILEGwk9enn4BFAAAEEEEAAAQQQiJ4AwUb0bFkzAggggAACCCCAAAJJLZAtqY+eg09TYNny5bJr5y4pV66sFClSJM15mYgAAggggAACCCCAgFsgroKNbdu2yb59+zzHkCVLFilQoIDky5fPM44vkRN4/PEnZNq0b2XQoBfl1ls6RG7FrCnTBbZv3y6//vqb/f9St24dyZEjR6bvAxuMfYFjx47JwoWLZN26dVKnTm0pWbJk7O80e4gAAgjEqcBff/0l2bJll+LFzw75CHbu2iWrV62Stev+khzZs0utWjWlVKlSIS9/KmaMq2DjwYcelokTJ/k5nXHGGVK6dGnp0OEmuaVDBzn99NP95mEEAskosHnzZrn1to4yb958z+HnNIHGHXd0kscfH+gZxxcE3ho8RF58cZDs3bvXg1G2bFkZ8cFwqVy5smccXxBAAAEETk7g33//lR4975WvvvpaKleqJNOn/5juCn///Xfp/9hAmTNnjs+8+nv+3LPP+IyLtYG4CjYcvPLly9uiPf/995/oG9v16zfI4sWL5ZFH+svgt4bI1KnfSKFChZzZ+UQgKQX++ecfad2mraxcuUqqmIfF5lc0t/9fJk/+RgYPeVuOHD0qzzz9VFLacNC+Am+/864MHPi45MqVS66//rrUH7+ff5ZffpktrVq3lfHjx0qlihV9F2IIAQQQQCBsgWXLlsntnf4nq0zuRKhJ79H9+z9mZ69bt65cdNGFUsrkPB84eFDOPrtYqKs5ZfPFZbDRrl1bua93Lw9aSkqKTJk6VXr1uk82bNwo93TvIZ99+olnOl8QSEaBN9540wYatWvVkkmTJniKTnW7+2654sqr5L33hkr7G26QmjVrJCMPx3xcQLPkn3jiSTs0+K035Zprrrbf+/XrK/fd11c++vhjO/2jD0dghgACCCBwEgLjxo+X3r37yIEDB6RTp9tl+PD3013bjz/+ZF8GafHnIYPfkmuvvSbdZWJthoRojUrrblzRvLm8/PIg6/v99z/41O0IhO5dVCDQ9GDjtEyzZn8FS3oBpTU90HL79+8XXW9GkgZaGTkW3U9dlpSYAnpuJ0ycaA/u6aef9AQaOqJixQrSrdvddtqozz+3n/yTvAJffvmlHDlyRBo3buwJNByNZ5992hZL/e6770XrzJEQQAABBDImsGTJEunatZtoqZwhQ96SjrfdGtKKnnzqKfuM+OQTj8dloKEHmRDBhnO2Gl16qZx22mn2IVpPqjvpuFtuvU3Oq15TypWvKJWrVJP2N94kS5cudc9qhxs2bCQ3d7jFfl++YoV0u6e7VKt2npSvUElefuVVzzI6rXuPnnZ9pcuUs9PLlqsg11x7vS2uctj8kLvTihUrTTbaHVKnbj3RefXviiuukrfeGmwvRPf8Ouy9P/rjf0P7m6RS5aqeY/nfnXeJVjYKlLS4mRaduerqa03566qi+3lO6bJyaaPL5ONPPslwsBNoW4w79QJapnPTpr8lb968Urt2bb8duqxxIztu7NhxBJ1+Osk1YuLEL+wBN7q0od+B58yZUxo0qC9HTZG7CRNSg1e/mRiBAAIIIJCuQNWqVeWx/o/KxAnjpVXLlnLo8OF0l/njzz9l/vwFctZZZ0mHOG6oJy6LUaV7dswM7krimnV177295aAp31ajRnX7A7pq1WrRXJCZM2bKm2++Ycsqe6/7r/XrZcfOnbJx0ya54Yb29uGtoGn9SlsNKFOmtJ1Vm4e91gQVu3fvlsKFC0vTpk0kW9ZssmbNGvntt99kjxl/d9cu3quVkSNHSb/7H7D7ohdQo0aN7FvDRabeiV5YU6dNk2HDhopuyzvp/qw1rcQMGzZcHnm0v91ezRo17DgNMiZN+kJ+nq7lrGdKwYIFvReVN00Qo8VqtDK9Vka60JTxmzVzlg20NEtv69Z/pHeve32WYSB+BVavXmN3XotIZc2a1e9AapmiVdmyZbN1OHaaa/zMM8/0m4cRySGwevVqe6B16tQJeMD1zj/f3idXrFwZcDojEUAAAQRCE7jnnm6eGY+ZlzjppR9+SK04fvnll9mWp9KbP1anJ1SwoTX1NXtKW9upZB6onbR161ZbRu7QoUPy/vBhcvXVVzmT5MOPPpY+ffrK/Q88aB/68+f3bUZXcwQ00MibJ69MmjhEzj+/rs/D23vvvmcDjbZt28hbJmDxTtp85K5du71H2Tolffvdb4staGtA3oGIBgxaaWiGCX6ee+55ef65Z32W1QE9hocefsS2JNSl812iRcg06Zvs7j3utRWOXnv9DRnwWH873vmn0+0dbZDRosX1thKojteiE2+8+ZY8++xz8tJLL8s9pmgNTaI6YvH9uX3HDnsA2jR0oKQBiOZ6aKChFckJNgIpJce4HcevlYIFA18rzosLvU5ICCCAAAKREQilKPvChQvtxmrVrGmfJz82dej+nDfPPqtVrVJFWrduHVazuZHZ8/DXkjDFqLSIlOZcaGrdprVkN20PO2mQeZDWehEXX3yRT6Ch07X/CB2vP7gjRoxwFvF8avCye/ce+fTTj6V+/Qt8Ag2daf2GDXbeC+rV8yzjfNHmeN2VbzWI0IChxfXX+wQausw555wj777zti0KNmLEh6JFrQKlZs2aStcunT2Bhs6jrRN0754aMS8wWW7upG0wt29/gyfQ0OlqpMevAYvuk+aakBJDQINkTRpQBEv58qUG1lt5iAxGlPDjD5tsfKfOV54g14pznRBsJPzlwAEigMApEHBeGgfatFNKQVuPvLxJU3ncNObxxRdfyuefj5YnnnzKFIVvHLBLiEDrOpXj4jLY+PHHH+WZZ56ztfO1HoXWdWjU+HKba1C9+nl+OQJTp06zxh1uvjmgdYP69e34paY5skDplg43B+3c6nzzkK9JAxptMSC99LNpTlLTrbfdEnDW8uXLyaWm7olWGJ8+fXrAeVq3bhVwfMUKqU1TrgtSbyPQQlr0y2lDf4vpk4GUGALOA6S7OKH30TnT9phgmpScAs51okefO0j/RM51oi9dSAgggAACmSfg3KP/7/9eEO32YeqUb+SvdWtk4YJ5tui7Nkh0b6/e8vffsf38FpfFqGbN+kX0zzuVKF5cevTobjr2u1m0UqOTtHL2JlPnQtNnn40UrbvhTn/9td6OciJI9/TzTZnlYKl793vsvkw3QUQ7U9xKg51OnW6XNiZry/mRdpbV+iLOBVGmTBlntN9nuXJl5YcffpBVx8tSu2coUbyEe5QddrZ35EjgSkd6UU4xgdfatWtlg8mR2b5tu21+Tb9rCiVLz87IPzEvUOh4HYx9+/YF3VfnJpa/QP6g8zAhsQXy589vc1I1B1evlUDF6ZzrpADXSWJfDBwdAgjEnICWytFUtWoV06XDx57SNUWLFpWHHnrQPM+ts8+177z7rl/x+Vg6mLgMNlq2bCHXXXutreB69tlnm27aSwbtxG+T6XdDf0g1zZw1K6i9Fik6etS/1ShdQHvRDZa0E6yRIz+VT00gM2TIEFmwYKFtm/7xx580TZx1kXt79rD7qctv2bLF80BfxOQoBEtFihSxkzaafQ+Uwu2wUIMIzXp7//0PbHEyrRhcrFgxOctcrFph3Em0hOtIxP+ncw3t2RO8mWaniebCdIAZ/yc8g0egdXc0wNBmbffsCZxzsce8pNAU7n0ng7vEYggggAACxwX0t1yLsN51552eQMMbRzth1ZfowVpV9Z73VH6Py2CjiqkUc91114bkpsWEnDTvz7m2BSdnONTPtMrT6Tr04V3rPujfTz/9JO++O1S+mTJFnn/+/2TF8hWmOds37NvDEiVK2DoTmsOxffuOoJV6nAqb2lJVoKTN+4aTNNDQJnU1En79tVdNsbPmPhXBG1/WxPbAfryueTirZt4YFXCCjWB9I2hZfSfYCPQ2O0YPi92KgoBeK3qdbDM5nYHStn9S+9dwcssCzcM4BBBAAIHIC5Q2dXkXm5ZKg+UsFy16/OX0hsAvpyO/RxlbY3hPrRnbxildKk+ePLZ9Yt2J5ebBP9pJ61t8+OEHprL5+3ZTY8eNk0WLFtvvGpScd9559nuw/jB0orZipalcuXL282T+0VyNjz9O7U39tVdfsUGau8WpzcfrapCzcTLSsbWsFufTNN+0WqGV/91p9uzZNsdPA1DvgNw9H8OJL+BcK3pNBEqzfknNET733HMDTWYcAggggECUBLThIE3Bnl+3bNlqp5coGbh4vZ0YA/8kfLChxhdckNpS1AcfjMg08iuvuMK2XqUbXOZV8bx27Vp2Hz759NOA+6J1Opx2levVC15XJODCAUZqs7/aB4imihUr+M2h/YQ4OSl+ExkRtwJ6g9LrXjsNmm76XnEnp9EEbQo53Jwy97oYjm+BG9q1tQegHYW6kzaNPHfuHzb3NtTcZPc6GEYAAQQQyJjAFVc2twt+dPylsXstTvWACuX9n+/c857K4aQINh595GHb94aWa9NetJ06HN7w2pmePpiHm7TYVKCyzho0/PnnPLs67z4/7ujUyXa4N2bMWBk/YYLP5nQ9vXr3Fi3ioj/sdQL0/OyzQAgDWkTCqTg+ceIknyW0edRex5sL9pnAQEII3NCunT0O7UNm565dnmOaaTpzfG/oMDvculVLz3i+JKfAJZdcImebTj7n/vGHvDV4iAdB75Nd7+5m++Np2PAS6mx4ZPiCAAIIZI7AJRdfLBdddKEtSvXYYwM89X5167Nn/yofmm4StNTMLbd2yJwdyuBW4rLORrjHqhW8H398oDza/zEZMGCgaA6H9iKe3/QzoD1nL1iwwDab+8WkibZeQzjr1yZv9c3fJZdcbCuSa/l3DVq+/nqyLb5y1ZVXmqJTJ4ofaNO2H5liVm3a3iCdO3eVoeahT4tW7dyx01Zg1yJNdn8HDghnN4LOq2+tbzF1Sd41nQ8+/cyzom8vtWPCDaby+ZQpU02zt5Xkmmuuli+//CroOpgQnwLaMpu2kjZhwkTTD0s9aWgeKrfv2G46gJxrm1a+v19f2z9LfB4dex0pAb1HDH3vXdOa3o0ycODjttW+KlUqiwalei8rWbKkDHrxhUhtjvUggAACCIQh8OQTT0j7G2+SIW+/I5O/mSINGtS3DQ799NN0+1uuLbFW9urIOoxVZ9qsSRFsqOYdd3SSeqbjvYcfecTmOKz2alZWm3/UHsDPOadU2PDaOd/mzVvk22+/81lWe93t2+c+09HePX7FVHQ/Pv5ohDz11DM2MtXoVJMGKrebnr4HDnhMcufO7bO+kxno/+gjdvHhw9+3D5/6AKp1WbQVg/97/jkZO3YcwcbJAMfostrS0OC33rR1MrQToK8nT7Z7WqFCedE+Z+65p1uM7jm7ldkC2rz3Z59+Ylutm2fq+WjLJnqPuOyyxvLC/z0ftJ+hzN5PtocAAggkm4DWq/t22lRb8mXmjJn2hZAaFC9+tjxqnmn1+TXWUxbz5ipFs8u1Eznn76jpqfDIkSOmKdijtkiP9k6dSEmPV9sm1nbltXJskSKFPc3TZvQ4tWyz9sR88MBBWyRBiy+l14qVbkuLMm3a9LepxF407FyVcPdVKwqvWbPGNnerbytD2b9wt8H8sSug5157g6YJ09g9R7GwZ9qu+/r166VChQoBm1qMhX1kHxBAAIFkFNBn85UrV9qGj2KxJck5c+bY1k61aJd2KaGf+uIzKYONZLxAOWYEEEAAAQQQQAABBKIlECzYSIoK4tFCZb0IIIAAAggggAACCCAQXIBgI7gNUxBAAAEEEEAAAQQQQOAkBAg2TgKPRRFAAAEEEEAAAQQQQCC4AMFGcBumIIAAAggggAACCCCAwEkIEGycBB6LIoAAAggggAACCCCAQHABgo3gNkxBAAEEEEAAAQQQQACBkxAg2DgJPBZFAAEEEEAAAQQQQACB4AIEG8FtmIIAAggggAACCCCAAAInIUCwcRJ4LIoAAggggAACCCCAAALBBQg2gtswBQEEEEAAAQQQQAABBE5CgGDjJPBYFAEEEEAAAQQQQAABBIILEGwEt2EKAggggAACCCCAAAIInIQAwcZJ4LEoAggggAACCCCAAAIIBBcg2AhuwxQEEEAAAQQQQAABBBA4CQGCjZPAY1EEEEAAAQQQQAABBBAILpAt+KTYmbJu3brY2Rn2BAEEEEAAAQQQQACBGBMoXbp0jO1R6u6QsxGTp4WdQgABBBBAAAEEEEAg/gXiImcjViO1+D/9HAECCCCAAAIIIIAAAtETIGcjerasGQEEEEAAAQQQQACBpBYg2Ejq08/BI4AAAggggAACCCAQPQGCjejZsmYEEEAAAQQQQAABBJJagGAjqU8/B48AAggggAACCCCAQPQECDaiZ8uaEUAAAQQQQAABBBBIagGCjaQ+/Rw8AggggAACCCCAAALREyDYiJ4ta0YAAQQQQAABBBBAIKkFCDaS+vRz8AgggAACCCCAAAIIRE+AYCN6tqwZAQQQQAABBBBAAIGkFiDYSOrTz8EjgAACCCCAAAIIIBA9AYKN6NmyZgQQQAABBBBAAAEEklqAYCOpTz8HjwACCCCAAAIIIIBA9AQINqJny5oRQAABBBBAAAEEEEhqAYKNpD79HDwCCCCAAAIIIIAAAtETINiIni1rRgABBBBAAAEEEEAgqQWyJfXRh3Hwv//+uxw79p/Url1LcuTIEcaSzIoAAggggAACCCCAQHIKxGWwcfDgQVm5cpWsW7fOnrWzzioqZcqUkcKFC/udxek//yyTJn0hPXv2kJIlSvhND3VEm7Y3yIEDB2TunN+kZMmSoS7GfAjEhMD27dvl119/kwIFCkjdunUImGPirMTuTmzZskX0PluqVCk57bS0M8DXr18vS5YulUMHD0n58uWkQsWKkiN79gwf3KZNf8uixYskp3mpU7NmLcmfP1+669q9e48sWrRI9uzZLTVq1JTixc9OdxlmQACB5BLYunWrfY4LdtT6DHnGGWcEmyxr1qyRefPnSyVzj6tatapkyZIl6LyhTEhJSZHNm7fIylUrZfPfmyWfudc1qN8g6D0vnu9zcRVsHD5yRAa/NVjeMn87d+3yOZd60uvUqSO9e98rzZs180x75pnnZM6cOVK0SBHp27ePZzxfEEgGgc2bN8utt3WUefPmew5XH+LuuKOTPP74QM84viCgAvrj99LLr8gLL7wo//33nyxZvFAKFSoUEGfGzJny1FPP2Pur9wwliheXJ598Qq699hrv0el+/+uvv+Se7j1k9uxfPfPqfb11q1YyaNALkjt3bs9458v+/fvlsccGyIgPP3JG2c8aNarLsKHvyTnnnOMzngEEEEhegTvv6iy//DI7KMCrr7wsN910o990vdd17dpN9CWMkwoUyC/PP/+ctGrZ0hkV8qfeZ0ePHiPPPPOsbNy0yWe5oe+9K9ddd63PuES4z8VVsNGv3/3y6aef2ZNw9tnFpFGjRpIrZ05Zv2GD/Pbb7/ZHT38gvdOVVzSXDWb6xRdf7D2a7wgkvMA///wjrdu0tbmAVSpXlubm/4LmcEye/I0MHvK2HDl6VJ55+qmEd+AAQxPQt2b3dO8uU6ZMTXeBjz/5RO67r68NTqpVqyb1618gxYoVk+nTp8vPP8+Q/915l/kxHSUNL7kk3XXpDHqtNmnaXHbv3i3nnXeeeWHUVPbt2y/fTJkiY8aOtTknk7/+UnLlyuVZn/5gt23XXrSI61lnnSUtW7SQvHnzyA8//mTHNW3WXCaMH2ffQHoW4gsCCCStwI4dO+yxV6pUUbJn9y8OX/DMgn42WiKgQ4dbRR/49X524YUNZKHJRf122rfSrVt3OS3LadKixfV+ywUbofetO/53p3z55Vc21/iqq66S6uedK0XNPWzbtm02N9l72YS5z5lspRTz9jNl48aNKebNUorJJkpZsWJFyuLFi1Pmz5+fYm7k5lhPfTLRaEqRosVSipcolfLdd9/77dDhw4fteP2MRjqndFm7fVNkIBqrZ50IRFzAvPG112zz5lemHDp0yLP+5ctXpJQtV8FO+/PPeZ7xfElegYULF6bUu6CBvSbM27+UKlXPtd/Nj19AFBMcpJiH+ZTRY8b6Te/bt59dtknTZn7Tgo24t1dvu0zH2zulHDlyxDPb3r17U1q0bGWnmQDZM16/jBr1uR1/fr36Ke79HDBgoJ12660dfZZhAAEEklfAua+Zl24hI+h9TJ89H37kUZ9lTM6EHV+pUpWUQ2E8dz733PN2uVq16qQsXbrUZ52BBuLtPqcxg8YOGkNoLKExhcYWaRfG9Q6vTvF3LQql6aKLLpLLLmtsv3v/k92UEdbx+pnRtGfPHjlq3vaSEIh3AXPTkgkTJ9rDePrpJ33qaFSsWMG8kbnbThv1+efxfqjs/0kKmBc0cnOHW2Tt2rVyd9cu8vaQwaYxjLTvg1q2eeqUb6RN61Z+W+/SpYsdt2TJUtGir+klvVbHjh1nZxs44DHJlu1EhruWn35p0CD7BvD1198QEzR7Vjd6zBj7vVevnn5Fvfr3f9S+IZz8zTeyYMFCzzJ8QQCB5BTQUi87d+6095eCBf1zMAKprF69RubPXyB58uSRAebe5J3atGktl1xysS3SP23qNO9JQb9rzsobb7xp72effPKRVDYlDtJLiXKfi5tgw0SO9pykuIpJpXeievW+T8ybLxk3fnzAWadOm2aLmlQ7t7qp2FhZSpYqbefXuh6hJvMWzS7T8fY7RH+4SQicagENzrWibd68eU0LarX9dueyxo3sOH3I04c9UvIKaOt6+kD/+muv2no8WiH80KGM38echjpMDoXs27s3XViTq24ro2sZ6DKmoQ93KleurK2Pp0Wtli5d5pmsjYRoql2rlmec8yVr1qzS+nggpI2EkBBAILkFtIimBhxFihQOuWL3pEmTLFqDBvUDNnrR2BTl1+QEBHYgjX+0GoA+y1599VUhF+9MlPtc3AQbVaukRoC/mfK5K1asTON0+k7S1ge04uHevft8J5ih+x940JbF0zLGx0yORh3zUKYRrM6/YeMGv/kDjdCgRMu/a47Kiy887/MGOdD8jEMgMwT0jYymmjVriD54uVMt84Cmb5C1Doe+7SElt0CTJpdL+/Y3eBCOHTvm+R7ul9VrVttFzjzzTAnlDaLeozUVKuTfmqCdYP4pW7aM+Vfsvdl+Mf+cWC5wBfayxwMXvZ+TEEAguQW2bdtuAYqYxoJCTatN61OatPGhQOn888+3o1eG+Ez6ww8/2vmvvOKKQKsLOC5R7nMn8qsDHmbsjGxmWpiqUqWKebO1VK5v0VL+z7QCoK2dZLTpMW0O9/33P7DBhbZA4NT+17e8y1eskDMCtHzi1tBs/VdefdU2hauVIcO5iN3rYhiBSApsP14RTpu6DZQ0ANFcDw009I2xPhiSEHAETia3a9zY1FzkZqaSdyipdOnSdrZNplUW3W6ge/rff/9t5/EOHMqY5ZYtXy6aM6IVxN1pU4Bl3PMwjAACySHgVA7Xe8yHH30sO8yLNn1J7OScFi1a1A9ix/bUCuUFg/yOnnm8QvlW8xsaSlqwMLVIZ81aNWW1eSH40ccfm8/VtrXUc889177w8W4EQ9eZKPe5uAk29OHowxHvm2Y8b7cBh7Z2os0a3npLB7nF/AVrnjHQBaBv7Z586mk76cEHH/AEGjpCf+gqV6oUaDGfccOHv2/XoRfoGBNoaHOPJARiRUBzLDRpQBEs5cuXzwYbeqMMpexosPUwPnEFAj34p3W02vfRByNG2DLJPXv0SGtWzzS9d2vrgn+bdubHT5jg15TkzzNmyMyZs+z83k2eV69+ng02tGiC+82jtuoybNjw1GV27vJsiy8IIJCcAk6woXW4+vTp64OQ07Rq2rnzXXJ/v76i3520LZ3f0bzmN1STvrTT+r7e9c2cdTif2tqfsw/aJ1CvXvfZ4qP6bOvkJA95+x0ZPuw9+2LdWS5R7nNxU4xK4fUN2DeTv7LlirXTJn3L9bRpp7hmrTpiWgowHTrtcc5Pmp/aFK5WhtSotsPNN6U5r3tiFlOeeey4cfLgQw+LRrujPx9psvjLumdjGIFTKmBa8bHbP/3004PuhzNtj7kJkhA4WQGtvK1NOmpngPf17iXaEEGo6ZGHH7azanO677031OYua8VM7fNDm53Ujls1eXe41bdvX1tsVfvYePTRx8S0rGabef7ss5Gizd7myJHaWEieNDrpsivlHwQQSHgBzWnVxlL6P/qIDBnylrw/fJgd1vF679KSKv37+1YCd+qcOb+VbqTcx39fNbfk33Tqp+3dl/qbrOt48MGH5NZbb5FfZ8+SDevXyayZM6R582ayatUq6dHzXlu3xNlWotzn4iZnw4HXk64tptz5vztsfwHDhg+XGTNm2h+oP/74U8aO+VyCXRjOOtauXWe/ata794+XMz2tz2WmguK9PXvZ7P533nnbJwJNazmmIZCZAoWOF4vat8+/rpKzH05Akt9UzCUhcDICWvGy2z3dbctP2hZ9nz73hbW6du3a2uIEr5kffH1x5CTNWXn4oQflp5+m25yP/MffJOp0Lf4wZPBb0qdvP3nn3Xftn7Oc/nBXN/11DHrpZdsrrzOeTwQQSE4BzXW46847/Q5ex+kLip739pL3PxghN5pO/bT+rqYzC6UWLw72O+r8hup9Kl8apQh0XftNv0FO6tixozzy8EPOoJQvX87kxA41vYdfaDvgNd07SNOmTez0RLnPxV2w4ZwdzZXQehb69/XXk6Xr3d1sp34DBj5u63M48wX6dCp/nxWgjF6g+b3Hde/R07YmoOOGmaJUjRpd6j2Z7wjEhIBTf2jPnn+D7s+//6ZOKxykh+igCzIBAZfAQw8/IloPTuvV6Y9moEYJXIv4DOqPtRZpbdu2rcz65RdZtXKlFDDNU2qnrLrOT0xRKU3u3BKtt6edbGlHflqfL6vJeW7QoIG9L/fp0y91mQqh57DYBfgHAQSSSuDGG9ub57nhNnf099/neIINz+/o8d9KN4pTmkbrRqZ3z3PWpevoYopsuVMO80x75VVX2hfnei9zgg2dLxHuc3EbbHifqKvMCXryicelb7/7TQ+2P3tPCvjdqd/hXf434IwBRmpOyNsmC+7Ou7qYIOdr0TJ2Xbt0DjAnoxA4dQLOjU3LrgdK2kSzE2xQOTyQEONCFXjhhRdF67CVLFlSRn72qeTPn1qOOdTlveerUKG86J930vu0Fn3VpJUo3Unv54H6+1iwcIGdVXskJyGAAAJpCei9JbUo5onWTj2/o/8E/h11WrgqdDwHJK31a9PeWk9Sc0Py5Q9cmsCppL7BNHrhTvF+n4urOhtufO/h+vUvsINaQVGz9NNKTpOI2vqJtgUfTvroww+kYcOGpnzfq7Yy+ZNPPmVzVMJZB/MiEG0BrVSmaf68eT4doTnbnT17tv1/ojc3p18EZxqfCIQqoJWwX3hxkG2Jb/Tno2xF71CXDXW+MaPH2Pu0NjMZamC8ZMkSWxxBi9Tq/ZqEAAIIpCWwY0dqE/ClzEsTJ2lRTE2zf53tjPL5nDUrteGKQC9BfGY8PqCNGunzqebcBkpbtmyxo0uWKBFost+4eLrPJUywsWpVatvuFcqXty2h+J0VrxFlTPvr+U1kqRUZx4+f4DUl/a9OHY/mpilerTuiwcpdJpcjI7kk6W+NORDImIDe1C64oJ4t8hcot2/q8R5PW7S4Pt3/LxnbA5ZKdAHtKFWLT+kbu89HfWbrUET6mPW+OvR4q1Kdbu8Y0ur1x1wrlmtq1arlSeW0hLRBZkIAgbgW2L9/v8ydO9ceQ+XjfbrpgBZf0qZo58yZK7t27fY5Rq0UPu3bb+24Vi1b+kwLNqDFQjVp07vupOv75ZfUoMadu+ueV4fj7T4XN8HGiBEf2hPhNBHmjb948WLTGkl/O+qKK6/wnhTwuzZt1rvXvXbaU08/bSs1es+oxUsWLlzkPSrg90ceeVjqms5eNMure/ce9MQcUImRp0rghnbt7Ka180rvYFibEX1v6DA7rbV5GCMhEK7A99//YO55PW1jHJ9+8rFUq1YtpFVok+M1a9W2Lb+kt8CmTX9Li+tb2hZaLrroQmnZskV6i4gWD+zS9W6ZMGGizW3pZ5qyJCGAAAKjRn0uWvLFnbTeRe/efURzFapWrSqXNW7smUWbjr/qyivtfaWnaSVKAwInvfLqa6It5mnRKO/6FTo92H2uS5cudv4PTEX0iRMnOauyn4MHDxFtEldfFF5++eU+09wD8Xify2J6J0zRCEkf4p0/bS9Y39jrpx5U3bp13cea6cNXXX2tLa6kORJlypSW4sVLmGJMIuvXr/cEC9ql/JjRn9smbZ0dvLnDLTJt2rcyaNCLtk8OZ7weV+s2beXXX3+TnDlySO06tW2Z40WLFsuyZcukXr3zZdLEE7kepcuUkwMHDsjcOb/Z+Zz16PYvb9JMdu/eLY/1f9T8AN/jTOITgVMqoP+fteEEffDKkyePaCtB23dst29pdJq2Kd63b59Tuo9sPDYFSpQ8x/4GLF2yKGDRpQtMqynafLhWikyr9b9q1arKF5Mm2oPUH+qSpUrb9WrxvYUL5vkcfOcuXc19vbhts/6PuX/Y5m/1t0n7PZowYVzA/Xj++f+TPeblkM6n5a0Xmk6ztBlL/Z345OMPzX28ns82GEAAgeQUuOnmDvLtt9/ZRiY0qMiXN59s3rJZ5pgK4foyTgOLsWNGS82aNXyAtN5jy1atZfnyFbaYaP369UVfcOuwPjt++OEIady4kWeZ9O5zI0eOkvtMPx/6G1yzRg2pdm41G2To/UtbzHr//WGiJWe8Uzzd5+bMmWObJNdj0Yac9FN/J+KmgnjbNq3tj4j+mMybN9/+OSdD+9/ofk83ucn0maEHF0rKYS6SCePHyetvvClDzVve1Oyr2RbmXHPymzZJbXYsvXWVKlVKtAfy2zvdIc88+5z9cXPqj6S3LNMRiKaA/gcf/Nabtk7GF198KV9Pnmw3p1m0HW6+We4x/2dICGREQH8oNemn0/xjoPXs33/AM1pbnCpfrpwsNS9z3K1K6UxTpkwVLc6g6TTTqpS+4et8153SseNtQe/r8xcsEKdIoC6nFTo1B6SvaXq3oGnNioQAAgioQPv2N8jmzVvsg/2KFSfqTGgx0A4dbrZN0Qaqv6jjNAjRAEFLBWjRe33O1OZx77+/n0+godtJ7z6n+1HGFOXXEgfz5s+XP/78097vatSoLi++8ILUMr2Lu1Mi3OfiJmfDwdf2jrUXRq3Mc3ru00Ur86T1Zs1ZLr1PjWw3meJQFUwzid49SKa3HNMRiBeBNWvW2CxcpzW2eNlv9jNxBPTe/bt589XAvB3U4gfeafPmzbLp77/ljNy5bUep+kIovaS98jpFI8qWLWPfTqa3DNMRQCB5BbSYvJZIOWRKt5Q2LzRCbXRCxfTlykpTuVtfhKT13JnWfc5bXl/U6P1LO4bObe57wVI83eeC5WzEXbAR7GQwHgEEEEAAAQQQQAABBE6NQLBgI24qiJ8aNraKAAIIIIAAAggggAACGRUg2MioHMshgAACCCCAAAIIIIBAmgIEG2nyMBEBBBBAAAEEEEAAAQQyKkCwkVE5lkMAAQQQQAABBBBAAIE0BQg20uRhIgIIIIAAAggggAACCGRUgGAjo3IshwACCCCAAAIIIIAAAmkKEGykycNEBBBAAAEEEEAAAQQQyKgAwUZG5VgOAQQQQAABBBBAAAEE0hQg2EiTh4kIIIAAAggggAACCCCQUQGCjYzKsRwCCCCAAAIIIIAAAgikKUCwkSYPExFAAAEEEEAAAQQQQCCjAgQbGZVjOQQQQAABBBBAAAEEEEhTgGAjTR4mIoAAAggggAACCCCAQEYFCDYyKsdyCCCAAAIIIIAAAgggkKYAwUaaPExEAAEEEEAAAQQQQACBjApky+iCmbncunXrMnNzbAsBBBBAAAEEEEAAgbgSKF26dEzuLzkbMXla2CkEEEAAAQQQQAABBOJfIC5yNmI1Uov/088RIIAAAggggAACCCAQPQFyNqJny5oRQAABBBBAAAEEEEhqAYKNpD79HDwCCCCAAAIIIIAAAtETINiIni1rRgABBBBAAAEEEEAgqQUINpL69HPwCCCAAAIIIIAAAghET4BgI3q2rBkBBBBAAAEEEEAAgaQWINhI6tPPwSOAAAIIIIAAAgggED0Bgo3o2bJmBBBAAAEEEEAAAQSSWoBgI6lPPwePAAIIIIAAAggggED0BAg2omfLmhFAAAEEEEAAAQQQSGoBgo2kPv0cPAIIIIAAAggggAAC0RMg2IieLWtGAAEEEEAAAQQQQCCpBQg2kvr0c/AIIIAAAggggAACCERPgGAjerasGQEEEEAAAQQQQACBpBYg2Ejq08/BI4AAAggggAACCCAQPQGCjejZsmYEEEAAAQQQQAABBJJagGAjqU8/B48AAggggAACCCCAQPQECDaiZ8uaEUAAAQQQQAABBBBIagGCjaQ+/Rw8AggggAACCCCAAALREyDYiJ4ta0YAAQQQQAABBBBAIKkFCDaS+vRz8AgggAACCCCAAAIIRE+AYCN6tqwZAQQQQAABBBBAAIGkFiDYSOrTz8EjgAACCCCAAAIIIBA9AYKN6NmyZgQQQAABBBBAAAEEklqAYCOpTz8HjwACCCCAAAIIIIBA9AQINqJny5oRQAABBBBAAAEEEEhqAYKNpD79HDwCCCCAAAIIIIAAAtETINiIni1rRgABBBBAAAEEEEAgqQUINpL69HPwCCCAAAIIIIAAAghET4BgI3q2rBkBBBBAAAEEEEAAgaQWINhI6tPPwSOAAAIIIIAAAgggED0Bgo3o2bJmBBBAAAEEEEAAAQSSWiBbUh89B48AAggggAACCSswa82/8sGvW+X7Fbtl9faDcvRYSsIeKweW+ALZsmaRcoVyyWUV80vHC4rKhWXzxsVBE2zExWliJxFAAAEEEEAgHIGuI1fJ2zM2h7MI8yIQ0wIaLC/fesD+6bXd5eJiMqR9+ZjeZ905go2YP0XsIAIIIIAAAgiEI3Dl4EXyzZJddpF+TUpI+zqFpXrxMySHeTNMQiBeBQ6bYGPBpn0ycu42eeHbjTaYXrvjoEy++9yYPiSCjZg+PewcAggggAACCIQjoDkaGmiUL5xLRnaqLHVL5QlnceZFIGYFNFjW61n/NIBuP3yZvdb1mo/lHA4qiMfsJcWOIYAAAggggEA4AlpHwyk6RaARjhzzxpuABhx6jWvSa16v/VhNBBuxembYLwQQQAABBBAIS0Arg2vSolPkaIRFx8xxKKDXuF7rmpxrPxYPg2AjFs8K+4QAAggggAACYQtoq1OatIgJCYFkEHCudefaj8VjJtiIxbPCPiGAAAIIIIBA2ALavK0mrQxOQiAZBJxr3bn2Y/GYCTZi8aywTwgggAACCCAQtoDTjwatToVNxwJxKuBc6861H4uHQbARi2eFfUIAAQQQQAABBBBAIAEECDYS4CRyCAgggAACCCCAAAIIxKIAwUYsnhX2CQEEEEAAAQQQQACBBBAg2EiAk8ghIIAAAggggAACCCAQiwIEG7F4VtgnBBBAAAEEEEAAAQQSQIBgIwFOIoeAAAIIIIAAAggggEAsChBsxOJZYZ8QQAABBBBAAAEEEEgAAYKNBDiJHAICCCCAAAIIIIAAArEoQLARi2eFfUIAAQQQQAABBBBAIAEECDYS4CRyCAgggAACCCCAAAIIxKIAwUYsnhX2CQEEEEAAAQQQQACBBBAg2EiAk8ghIIAAAggggAACCCAQiwIEG7F4VtgnBBBAAAEEEEAAAQQSQIBgIwFOIoeAAAIIIIAAAggggEAsChBsxOJZYZ8QQAABBBBAAAEEEEgAAYKNBDiJHAICCCCAAAIIIIAAArEoQLARi2eFfUIAAQQQQAABBBBAIAEECDYS4CRyCAgggAACCCCAAAIIxKIAwUYsnhX2CQEEEEAAAQQQQOCUCRw+lnLKtp1oG86WaAfE8SCAAAIIIIAAAqdaYM32g9Lp45V+u5Eli0ipAjmlevHcUqP4GXL+OXmk0BmhPY61eHeJ7D5wzG+daY34/I7KUiRPds8sVw1eLAeO/OcZDudLhSK55L2bKqS5SKv3lsrO/Uc989xSr4jceeFZnuG0vizevF+6jVrtM8uDzUrIlVUL+ozTgQFf/SU/rtzjGZ//9Kwy4a6qnuFwv2hw8db0v+WrxTtl2ZYDsn7XIcmZ7TQpXTCntKpZSLpcXEzKnJkz3NUyvxEI7eqGCgEEEEAAAQQQQCBkgf2H/zMPw7vTnT9frqzySuty0qlB0XTnnbn6X9m270i683nP4H5D//PqPbL3UHgBi7O+3QdPBBHOOO/PPzfuk/Hzt3uPstsKNdj41+yX2yyYiwYm3vMWPuNEQOWzAyEMfLt8l3QduUpW/nPQZ+6DJihbtvWAPDd1g7w7c7NM636e1Cpxhs88DKQvQDGq9I2YAwEEEEAAAQQQiIrAnoPH5I5PVojmWnjnCERlY1FeqTvQ0M3NWb9X/tp5KMpbzvjql5pcjBbvLPULNNxr3L7vqDR5faHMNcdDCk+AYCM8L+ZGAAEEEEAAAQQiLjBxwQ65b9yaiK83M1c4fv6OgJubYI4tFtOx/1Kk3bClsu+wb06PFnW7oHQeOccUofJOO0zxsGZvLhINEEmhC1CMKnQr5kQAAQQQQAABBDIs8Nz1pU39hWLyz94j9o3/k5PX22I6zgo/+HWrdL6omFxYNq8zKs3P6847U4Z3qJjmPAVz+z7qrR14vt/8783aLA9OXOcz/vse55l6Jb5FhrKm8Yp67Y5DMs8UowqUxs3bLj0uPTvQpFM6bvHmA7Lw7/0++3CRsf/otkpStlAuSTF1xLuPXm3rcjgzacDx6Zx/bB0OZxyfaQukcdmkvSBTEUAAAQQQQAABBEIXyJMzq60MXuWs06XD+UXk1741pVLR0z0rcB5uPSPS+ZIzWxa7Pq1gHuzvNPOW3jsFmk/3y500SHHPW+B038DFe5lARaic6dNX7RF9SI+1NHeDf5GoexqebQMN3VfN4egeIEj6bnn6dXFi7VhP5f4QbJxKfbaNAAIIIIAAAkkroJXDO1/k21KT1gnYvOdw3Jm4i1CdlfdEhe2jprjSpIWxV5Rqwy5/5/NMK2HeqaoJDLUVLm2ZyvnbanKmSKELBA9RQ18HcyKAAAIIIIAAAghkQKBZlQJ+Sy0xlZaL5cvhNz5WR2jlaW3lykn6UN63SQnpN36tM8q0UrVDOl6QfotbngUy4UsVr1wlZ3PvzNgib7Qr5wzazxX96/oMMxCeADkb4XkxNwIIIIAAAgggEDGBol59YDgrXWKadY2npLkWWtnaSVrnROuTeKdvluwUbQ44lpL2cZLVVc7s7RmbbVO3mhtDiowAORuRcWQtCCCAAAIIIIBA2AKFAwQby7b69vcQbKXzN+2Xvl65B97znZ0vu/S5vIT3qKh9d9fXaFIpv1Q2uQYl8ueQjbtTiyppR4JTlu6UljUKRW0/wl1xadNJX7dLisnrP/3tWVSDjIcmrZN3Z22RB5uWlI71i0qOrK6KL565+RKKAMFGKErMgwACCCCAAAIIREEgm3mzrn/eb9L3u5piDbbZ5abDuUHfbQw4+byzc2dKsJEaROzy2YcmlVKLhjWpXEBGmBa2nDTOFKWKpWBD9+uJa86R6aYI2J8bfFvSWr3toHT+bKUM/Pov6dW4uHQ1QUneABXpnWPjM7gAxaiC2zAFAQQQQAABBBBAIA0BLR6lAYeT9IG8numjQpPmcHinL0xxK++gynvaqfquLWzN6FVD2tYKnOOyyeTM3D9hrdR+/k9Z5Gom91Ttc7xtl2Aj3s4Y+4sAAggggAACCMSIgLsVqkYV89ucGt09zdnwTtr87U8rT1Qk9552Kr/nznGajOpURSbcVdV25hdoX1aZnI4LX5rvUxE+0HyM8xegGJW/CWMQQAABBBBAAIFME3BXRc5hWnMKJTU3LVm91rZcwFkzo56BVgr/YpFvk7beuRlaZ0Prbiwzxb2cpPU7LnfleDjTTuWn9qlxffUz7d+0ZbvkmSkb5PsVvv1p/HvomHQduUrmPVDLr2L5qdz3WN82wUasnyH2DwEEEEAAAQQSVmD3gWM+LTnpgZYvnCuk49V+OvRh/lQl7axPm731TlrU6Klv1ntGaTO43mn8gh1BAyTv+U7l96YmR0b/fjDBxm0frZD1Ow95dkeP7+Pf/5HbYqwZX88OxuAXgo0YPCnsEgIIIIAAAggkh8DG3SceZJ0jrlQ0tGDDmf9UfWrg4E7vmVac0kr64D7HdFxYt1RqvY605o3mNM2V0f5MvFMR0zKYd2eEjU2RsJdalZV2w5Z6zyaz1+0l2PARSXuAYCNtH6YigAACCCCAAAJRE9Dma92pUpFTl1vh3pe0hieYIlEZSePmbT/lwYZ2o1HzuT9EP52kLU4NvqE91aXQAAATP0lEQVS8M2g/rzm3oJyRI6vs82ohbJkrSPFZgAE/Ad+8Lb/JjEAAAQQQQAABBBCIlsCbXn086Db0zXrZQrGfs/Hnxn2ydod/rkwoToFyREJZLpLzZDd9Z5zt6qV9aYAgwjZNnNV3y1l5evYFSWeInI10gJiMAAIIIIAAAghEWmDLv0fkvrFr/Fo3eva6MqIPwrGe3B356f6+fWN5yZfL/9FS5x05d5vnkLTew4p/DkjFU5yD07xqQRn+y4liX1pHQ+uhNCyfz7Ov3y3fLVqvxjvVKH6G9yDf0xHwvyLSWYDJCCCAAAIIIIAAAuELPGtaOHp35hbZuOuwbNt3xG8FF5j+KW43PVaHmqaaVpNqmf4f0kqTOleVUgVzpjVLhqa5m7zV3JjOFxULuK6ipi6Ed7ChM+ny/ZpErofznQeOpmmhORS/96vps3/dGxaTD2Zv8SlK1eSNhXJjnSJStdjptm7JFwt3+iyjA/XL5PUbx4jgAgQbwW2YggACCCCAAAIIRExgo+kgTv8CpZIFcsg7N1YQbYI11KRv3OeZ4kxppcPHvColpDVjGNO0+JR7u95N3rpXdVHZvJIr+2ly0Kvzv3EmtyOSwYZW+Hbvk/d+aLDhTnVMJfVPOlaW2z5cLo7TEeP14W8nej13L6PNDbepGbgDQPe8DKcKUOqMKwEBBBBAAAEEEDiFAtqM6sKH6kjNEvFRPCdQESp3B37enBpoXFz2RNEknfbL2n9l857AgZf3stH+3r5OYfmiazXJY3o+Ty9psa/3b6kYVkCY3jqTYTrBRjKcZY4RAQQQQAABBGJCQHMuypl+NLQDuYebl5Sp95wrH5gH2Pynp/+wGxMHYHbCXYRKj+ly00xsWqlJZd/pKSbDZUKApnPTWke0pjUzfWr8dG91aVe7sM2BcW9HK5K/3LqsLHq4tl+lcve8DPsLZNm6dWvKf//9J8eOmU5ljv8dPXpUjhw5Ivp5+PBhqVu3rv+SjEEAAQQQQAABBGJIIEvPGXZvUl67OIb2il2JJwFt4nbN9kOyyRR3K5g7m6nEnksKnB7btQ5i5bqfM2eO5MiRQ7JlyybZs2e3n1mzZpXY1ounq5N9RQABBBBAAAEEEIhrAe1T47yzc9u/uD6QGNp5ilHF0MlgVxBAAAEEEEAAAQQQSCQBgo1EOpscCwIIIIAAAggggAACMSRAsBFDJ4NdQQABBBBAAAEEEEAgkQQINhLpbHIsCCCAAAIIIIAAAgjEkADBRgydDHYFAQQQQAABBBBAAIFEEiDYSKSzybEggAACCCCAAAIIIBBDAgQbMXQy2BUEEEAAAQQQQAABBBJJgGAjkc4mx4IAAggggAACCCCAQAwJEGzE0MlgVxBAAAEEEEAAAQQQSCQBgo1EOpscCwIIIIAAAggggAACMSRAsBFDJ4NdQQABBBBAAAEEEEAgkQQINhLpbHIsCCCAAAIIIIAAAgjEkADBRgydDHYFAQQQQAABBBBAAIFEEiDYSKSzybEggAACCCCAAAIIIBBDAgQbMXQy2BUEEEAAAQQQQAABBBJJgGAjkc4mx4IAAggggAACCCCAQAwJEGzE0MlgVxBAAAEEEEAAAQQQSCQBgo1EOpscCwIIIIAAAggggAACMSRAsBFDJ4NdQQABBBBAAAEEEEAgkQQINhLpbHIsCCCAAAIIJLFAtqxZ7NEfPpaSxAocejIJONe6c+3H4rETbMTiWWGfEEAAAQQQQCBsgXKFctllFmzaF/ayLIBAPAo417pz7cfiMRBsxOJZYZ8QQAABBBBAIGyByyrmt8uMnLst7GVZAIF4FHCudefaj8VjINiIxbPCPiGAAAIIIIBA2AIdLyhql3nh240yZ/3esJdnAQTiSUCvcb3WNTnXfizuP8FGLJ4V9gkBBBBAAAEEwha4sGxe6XJxMbtc++HLCDjCFmSBeBHQQEOvcU16zeu1H6spW6zuGPuFAAIIIIAAAgiEKzCkfXlZu+OgfLNkl5z/wjzp16SEtK9TWKoXP0NyHK9AHu46mR+BWBDQyuBaR0OLTjk5GldULSB6zcdyyrJ169aU//77T44dO+b5O3r0qBw5ckT08/Dhw1K3bt1YPgb2DQEEEEAAAQQQ8BHoOnKVvD1js884BhBIJAHN0YilQGPOnDmSI0cOyZYtm2TPnt1+Zs2aVcjZSKSrjmNBAAEEEEAAASugD2Fajv2DX7fK9yt2y+rtB+UoTeJydcSxgDZvq61OaWVwvbZjueiUNzPBhrcG3xFAAAEEEEAgYQT0YSxeHsgSBp0DQcAlQAVxFwiDCCCAAAIIIIAAAgggEBkBgo3IOLIWBBBAAAEEEEAAAQQQcAkQbLhAGEQAAQQQQAABBBBAAIHICBBsRMaRtSCAAAIIIIAAAggggIBLgGDDBcIgAggggAACCCCAAAIIREaAYCMyjqwFAQQQQAABBBBAAAEEXAIEGy4QBhFAAAEEEEAAAQQQQCAyAgQbkXFkLQgggAACCCCAAAIIIOASINhwgTCIAAIIIIAAAggggAACkREg2IiMI2tBAAEEEEAAAQQQQAABlwDBhguEQQQQQAABBBBAAAEEEIiMAMFGZBxZCwIIIIAAAggggAACCLgECDZcIAwigAACCCCAAAIIIIBAZAQINiLjyFoQQAABBBBAAAEEEEDAJUCw4QJhEAEEEEAAAQQQQAABBCIjQLARGUfWggACCCCAAAIIIIAAAi4Bgg0XCIMIIIAAAggggAACCCAQGQGCjcg4shYEEEAAAQQQQAABBBBwCRBsuEAYRAABBBBAAAEEEEAAgcgIEGxExpG1IIAAAggggAACCCCAgEuAYMMFwiACCCCAAAIIIIAAAghERoBgIzKOrAUBBBBAAAEEEEAAAQRcAgQbLhAGEUAAAQQQQAABBBBAIDICBBuRcWQtCCCAAAIIIIAAAggg4BIg2HCBMIgAAggggAACCCCAAAKRESDYiIwja0EAAQQQQAABBBBAAAGXAMGGC4RBBBBAAAEEEEAAAQQQiIwAwUZkHFkLAggggAACCCCAAAIIuAQINlwgDCKAAAIIIIAAAggggEBkBAg2IuPIWhBAAAEEEEAAAQQQQMAlQLDhAmEQAQQQQAABBBBAAAEEIiNAsBEZR9aCAAIIIIAAAggggAACLgGCDRcIgwgggAACCCCAAAIIIBAZAYKNyDiyFgQQQAABBBBAAAEEEHAJEGy4QBhEAAEEEEAAAQQQQACByAgQbETGkbUggAACCCCAAAIIIICAS4BgwwXCIAIIIIAAAggggAACCERGgGAjMo6sBQEEEEAAAQQQQAABBFwCBBsuEAYRQAABBBBAAAEEEEAgMgIEG5FxZC0IIIAAAggggAACCCDgEiDYcIEwiAACCCCAAAIIIIAAApERINiIjCNrQQABBBBAAAEEEEAAAZcAwYYLhEEEEEAAAQQQQAABBBCIjADBRmQcWQsCCCCAAAIIIIAAAgi4BAg2XCAMIoAAAggggAACCCCAQGQECDYi48haEEAAAQQQQAABBBBAwCVAsOECYRABBBBAAAEEEEAAAQQiI0CwERlH1oIAAggggAACCCCAAAIuAYINFwiDCCCAAAIIIIAAAgggEBkBgo3IOLIWBBBAAAEEEEAAAQQQcAkQbLhAGEQAAQQQQAABBBBAAIHICBBsRMaRtSCAAAIIIIAAAggggIBLgGDDBcIgAggggAACCCCAAAIIREaAYCMyjqwFAQQQQAABBBBAAAEEXAIEGy4QBhFAAAEEEEAAAQQQQCAyAgQbkXFkLQgggAACCCCAAAIIIOASINhwgTCIAAIIIIAAAggggAACkREg2IiMI2tBAAEEEEAAAQQQQAABlwDBhguEQQQQQAABBBBAAAEEEIiMQLrBRpYsWSKzJdaCAAIIIIAAAggggAACCSkQLGZIN9hISA0OCgEEEEAAAQQQQAABBKIu4Ak2gkUjUd8DNoAAAggggAACCCCAAAIJKeAJNhLy6DgoBBBAAAEEEEAAAQQQyBSBQJkXBBuZQs9GEEAAAQQQQAABBBBIPgGCjeQ75xwxAggggAACCCCAAAKZIpBmsBEoKyRT9oqNIIAAAggggAACCCCAQNwLBA02CDTi/txyAAgggAACCCCAAAIIZKqAO4awwYZ7ZKbuERtDAAEEEEAAAQQQQACBhBQImrORkEfLQSGAAAIIIIAAAggggECmCRBsZBo1G0IAAQQQQAABBBBAILkEAgYbFKtKrouAo0UAAQQQQAABBBBAIFIC3rFEwGAjUhtiPQgggAACCCCAAAIIIJC8An7BhnckkrwsHDkCCCCAAAIIIIAAAghkVMCJKU5zvmR0RSyHAAIIIIAAAggggAACCAQS8MvZcM9EMOIWYRgBBBBAAAEEEEAAAQS8BYLFDD7Bhnsm97D3CvmOAAIIIIAAAggggAACCDgC7thBh32CDWdGPhFAAAEEEEAAAQQQQACBkxXwBBuBIpGTXTnLI4AAAggggAACCCCAQPIIuGMKT7DhTeCeyXsa3xFAAAEEEEAAAQQQQACBYALesUTAYMN7Qe+ZvcfzHQEEEEAAAQQQQAABBBBQgWAxgw02vCd6f4cOAQQQQAABBBBAAAEEEAhXQGMK/fPJ2XAHGu7hcDfC/AgggAACCCCAAAIIIJAcAoFih6Cd+gWaOTmYOEoEEEAAAQQQQAABBBDIiIA7hvDJ2cjIClkGAQQQQAABBBBAAAEEEHAEvAMOT7ChI50JzqcuoN+PHDniLMsnAggggAACCCCAAAIIIOAR0FjBO5ZwJug4T7DhPdL9/cCBA84oPhFAAAEEEEAAAQQQQAABj0CgWMHJvLDBhjPgWcJ88R63d+9e70l8RwABBBBAAAEEEEAAAQSsgHescNppvnkZPkNOgKGfzoz6uWvXLigRQAABBBBAAAEEEEAAAT8BjRWyZs1qx2sc4f3naY3KO9Bwfz906JBs377db8WMQAABBBBAAAEEEEAAgeQV0BhBYwVN3jGEI+KTs+GeyXuBTZs2OcvwiQACCCCAAAIIIIAAAgiIxghOzKAlovS786c8NmfDGeE9g07U8c44jVhWr16to0kIIIAAAggggAACCCCQ5AIaG2iM4MQM3hzOOE8FcR3hJP3uzOD9+c8//8i6deuc2fhEAAEEEEAAAQQQQACBJBTQmEBjAydW0AwK50/HOcmnzoZOcP6cHA3nUyt96HfNKlmxYoWkpKQ46+ATAQQQQAABBBBAAAEEkkBAYwCNBTQm0NhAYwQnfgj0mU1Heidn2HtmXcmxY8fsyvRz69atsnPnTjnnnHOkWLFi3ovzHQEEEEAAAQQQQAABBBJQYPPmzfLXX3/ZDr+zZctmYwPvgMPJpHDiCCXIYpqqSvnvv//E/ac9Aeq4o0eP2j8NMg4fPmyDDp3mjM+ZM6cUKVJEChYsKHnz5pUcOXLY6CYBfTkkBBBAAAEEEEAAAQSSQkBzMPTZ/99//7WZDFpkSutnZM+e3QYZzqc++2vGhAYfTgCinxp46F82by3vKEQX0uTMqIGHLqhJvzvFqHSjGuFoBRFnvPOp8zh/upz3dx0mIYAAAggggAACCCCAwKkR8H72d747n04uhQ0YjgcPThChcYITYOj8TrzgfOrROOux0YNO0KRBgrOABgbOd13Z/7d3bjtOA0EUfOH/vxnKq4oOQzZKliAQqpHsvk6b1NMcORuo2aMQIaaHtx5YerwUFliW8RUcN3uOdGEEIhCBCEQgAhGIQAQi8AYCnNXvLfLW9LEKB6ziAt+3F+bXup+c/jcChYRJLTVFAoP56pRCwx5y+PQiOpjlHucqJrT7Qe/ltv6M/44ZzzynnghEIAIRiEAEIhCBCPwNApy3f3fdm2FOu0IBn7M/lkuhcYoP61jm7HX7GtU+gMM7Q7BsYpnD3wH4iAqEBr304bPw97qSc6P26vrKnlefUX8EIhCBCEQgAhGIQAT+dQKe31/5d97bc57tiRUOWAWHImPt1tlHbfdfYoMEy4M8MT6bXWy0bs5Bvt2gjvBwnzH9u3d9Z31mX+n9bEb5CEQgAhGIQAQiEIEI/O8EPNM/8zm3V58z/PrGWP9eA1+xoY/14tnOwP9JbFDgcE+zi5g8OR7iV6PI+UZDn5h+LTPs33mPBMSjmjOyEYhABCIQgQhEIAIRiMBjApzRP1vUzjrnfXP6WC9Ehv6KD2dZw7LIX//Phgd8CvhcFI1tvnb9uDHcPwqnj35EhSJDS7/zsOfa3PpnX3EEIhCBCEQgAhGIQAQi8DUCnNdd62+OvDUsOkB7+is68M8+5pq7iQ0SHPgZtm8jGMAip09MPzmFxfrM8aJXIaElxzrjj2z3CEQgAhGIQAQiEIEIROBPEOAMv8t4Lb4X2uAUG9TIrdDQ33085/bTt4gFlpt9c0FOkaE4YLh1fPa6zx7nEZtjFmvj9T+q3SMQgQhEIAIRiEAEIhCBdxPgvO5anxyxOc73myPmskdhYc5499v7y69RcfinyCZ/Vcp4BQQ5ehUd9FvHElNXTJz2+gQPbvY/aKkUgQhEIAIRiEAEIhCBCBwEOKc/s+xbq6/g0JJfUUFMTcHh8+wx/g73E9sLPKiuOAAAAABJRU5ErkJggg==;" parent="1" vertex="1">
          <mxGeometry x="41" y="64" width="388.08" height="350" as="geometry" />
        </mxCell>
        <mxCell id="4vIXEkXpFMLQv__zkvIG-1" style="edgeStyle=orthogonalEdgeStyle;rounded=0;orthogonalLoop=1;jettySize=auto;html=1;exitX=0.5;exitY=0;exitDx=0;exitDy=0;entryX=0.5;entryY=1;entryDx=0;entryDy=0;entryPerimeter=0;" parent="1" source="4vIXEkXpFMLQv__zkvIG-6" target="4vIXEkXpFMLQv__zkvIG-4" edge="1">
          <mxGeometry x="520" y="19.5" as="geometry">
            <mxPoint x="731.5" y="129" as="targetPoint" />
            <mxPoint x="644.5" y="369.5" as="sourcePoint" />
            <Array as="points" />
          </mxGeometry>
        </mxCell>
        <mxCell id="4vIXEkXpFMLQv__zkvIG-2" value="" style="rounded=0;whiteSpace=wrap;html=1;dashed=1;glass=1;shadow=1;strokeWidth=2;fillColor=none;" parent="1" vertex="1">
          <mxGeometry x="520" y="19" width="440" height="431" as="geometry" />
        </mxCell>
        <mxCell id="4vIXEkXpFMLQv__zkvIG-3" value="Ellucian Cloud" style="text;html=1;strokeColor=none;fillColor=none;align=center;verticalAlign=middle;whiteSpace=wrap;rounded=0;shadow=1;glass=1;dashed=1;fontSize=14;" parent="1" vertex="1">
          <mxGeometry x="533" y="22" width="96.5" height="22" as="geometry" />
        </mxCell>
        <mxCell id="4vIXEkXpFMLQv__zkvIG-4" value="Banner&lt;br&gt;Storage" style="shape=cylinder3;whiteSpace=wrap;html=1;boundedLbl=1;backgroundOutline=1;size=15;" parent="1" vertex="1">
          <mxGeometry x="795" y="55.5" width="60" height="80" as="geometry" />
        </mxCell>
        <mxCell id="4vIXEkXpFMLQv__zkvIG-5" value="Ethos&lt;br&gt;Integration" style="rounded=1;whiteSpace=wrap;html=1;" parent="1" vertex="1">
          <mxGeometry x="675" y="345" width="130" height="69" as="geometry" />
        </mxCell>
        <mxCell id="4vIXEkXpFMLQv__zkvIG-6" value="Ellucian&lt;br&gt;EEDM &amp;amp; BP APIs" style="rounded=1;whiteSpace=wrap;html=1;" parent="1" vertex="1">
          <mxGeometry x="760" y="203.5" width="130" height="69" as="geometry" />
        </mxCell>
        <mxCell id="4vIXEkXpFMLQv__zkvIG-7" value="Ellucian&lt;br&gt;Data Connect&lt;br&gt;pipeline API" style="rounded=1;whiteSpace=wrap;html=1;" parent="1" vertex="1">
          <mxGeometry x="590" y="203.5" width="130" height="69" as="geometry" />
        </mxCell>
        <mxCell id="4vIXEkXpFMLQv__zkvIG-8" value="" style="endArrow=classic;startArrow=classic;html=1;rounded=0;exitX=0.75;exitY=1;exitDx=0;exitDy=0;entryX=0.25;entryY=0;entryDx=0;entryDy=0;" parent="1" source="4vIXEkXpFMLQv__zkvIG-7" target="4vIXEkXpFMLQv__zkvIG-5" edge="1">
          <mxGeometry width="50" height="50" relative="1" as="geometry">
            <mxPoint x="800" y="310" as="sourcePoint" />
            <mxPoint x="850" y="260" as="targetPoint" />
            <Array as="points" />
          </mxGeometry>
        </mxCell>
        <mxCell id="4vIXEkXpFMLQv__zkvIG-9" value="" style="endArrow=classic;html=1;rounded=0;entryX=0.25;entryY=1;entryDx=0;entryDy=0;exitX=0.75;exitY=0;exitDx=0;exitDy=0;" parent="1" source="4vIXEkXpFMLQv__zkvIG-5" target="4vIXEkXpFMLQv__zkvIG-6" edge="1">
          <mxGeometry width="50" height="50" relative="1" as="geometry">
            <mxPoint x="820" y="560" as="sourcePoint" />
            <mxPoint x="870" y="510" as="targetPoint" />
          </mxGeometry>
        </mxCell>
      </root>
    </mxGraphModel>
  </diagram>
</mxfile>
